<?xml version="1.0" encoding="UTF-8"?><svg id="Layer_1" xmlns="http://www.w3.org/2000/svg" viewBox="0 0 150 150"><defs><style>.cls-1{fill:#b39359;}.cls-2{fill:#0b2c3d;}</style></defs><g><path class="cls-2" d="M61.71,3.52v14.19c0,2.9-2.35,5.26-5.26,5.26h-9.24c-13.62,0-25.34,10.48-25.96,24.08-.67,14.52,10.88,26.49,25.26,26.49h12.06v-11.82h-12.06c-3.72,0-7.08-1.51-9.52-3.95-2.63-2.63-4.18-6.33-3.92-10.39,.45-7.12,6.52-12.59,13.66-12.59h9.72c2.9,0,5.26,2.36,5.26,5.26v18.52h11.82V15.34c0-6.53-5.29-11.82-11.82-11.82Z"/><path class="cls-2" d="M61.71,91.43v12.06c0,3.72-1.51,7.08-3.95,9.52-2.64,2.64-6.37,4.2-10.47,3.91-7.14-.49-12.51-6.77-12.51-13.93v-9.44c0-2.9,2.36-5.26,5.26-5.26h18.52v-11.82H15.34c-6.53,0-11.82,5.29-11.82,11.82h14.19c2.9,0,5.26,2.36,5.26,5.26v9.23c0,13.62,10.48,25.34,24.09,25.97,14.52,.67,26.49-10.89,26.49-25.26v-12.06h-11.82Z"/><path class="cls-2" d="M103.48,76.46h-12.06v11.82h12.06c3.72,0,7.08,1.51,9.52,3.95,2.63,2.63,4.18,6.33,3.92,10.39-.45,7.12-6.52,12.59-13.66,12.59h-9.72c-2.9,0-5.26-2.36-5.26-5.26v-18.52h-11.82v43.24c0,6.53,5.29,11.82,11.82,11.82v-14.19c0-2.91,2.35-5.26,5.26-5.26h9.24c13.62,0,25.34-10.48,25.96-24.09,.67-14.52-10.88-26.49-25.26-26.49Z"/><path class="cls-2" d="M132.29,61.72c-2.9,0-5.26-2.36-5.26-5.26v-9.24c0-13.62-10.48-25.33-24.08-25.96-14.52-.67-26.49,10.88-26.49,25.26v12.06h11.82v-12.06c0-3.72,1.51-7.08,3.95-9.52,2.63-2.63,6.33-4.18,10.39-3.92,7.12,.45,12.59,6.52,12.59,13.66v9.72c0,2.9-2.36,5.26-5.26,5.26h-18.52v11.82h43.23c6.53,0,11.82-5.29,11.82-11.82h-14.19Z"/></g><rect class="cls-1" x="76.63" y="61.46" width="11.91" height="11.91"/><rect class="cls-1" x="61.46" y="61.46" width="11.91" height="11.91"/><rect class="cls-1" x="61.46" y="76.63" width="11.91" height="11.91"/><rect class="cls-1" x="76.63" y="76.63" width="11.91" height="11.91"/></svg>