<svg width="228" height="286" viewBox="0 0 228 286" fill="none" xmlns="http://www.w3.org/2000/svg">
<g opacity="0.2" clip-path="url(#clip0_0_2236)">
<path d="M45.1415 231.266C44.0495 223.698 51.9813 220.57 57.5992 223.084C60.1018 224.202 61.131 226.823 61.5654 229.358C61.8623 230.707 61.7522 232.114 61.2493 233.4" fill="white"/>
<path d="M-0.237552 195.042C2.65126 192.943 5.55862 193.21 8.57752 195.196C11.5014 197.12 12.5187 199.627 12.0875 202.962" fill="white"/>
<path d="M37.0838 223.052C33.2533 220.433 32.408 216.323 35.0298 212.218C37.7056 208.047 41.8188 207.2 46.0751 209.947C50.1882 212.604 50.9077 216.694 48.2359 221.045C47.7325 221.918 47.0522 222.676 46.2387 223.27C45.4253 223.863 44.4967 224.28 43.513 224.492" fill="white"/>
<path d="M25.0416 209.616C21.1231 207.089 20.3115 202.911 22.9315 198.821C25.6148 194.631 29.7197 193.767 33.9519 196.501C38.0796 199.165 38.8865 203.296 36.1283 207.555C33.4881 211.642 29.3656 212.396 25.044 209.595" fill="white"/>
<path d="M-11.1017 194.822C-12.0021 194.272 -12.7834 193.547 -13.3992 192.689C-14.015 191.831 -14.453 190.859 -14.6872 189.828C-14.9214 188.798 -14.9471 187.731 -14.7628 186.691C-14.5785 185.65 -14.1879 184.657 -13.6141 183.77C-13.0403 182.883 -12.2949 182.12 -11.422 181.526C-10.5491 180.932 -9.56635 180.52 -8.53181 180.313C-7.49727 180.106 -6.43193 180.109 -5.3987 180.321C-4.36547 180.534 -3.38532 180.952 -2.51614 181.55C1.15823 184.016 2.28069 188.895 -0.395384 192.598" fill="white"/>
<path d="M62.4558 225.189C61.5702 224.627 60.8057 223.894 60.2072 223.032C59.6088 222.169 59.1885 221.196 58.9711 220.169C58.7536 219.141 58.7435 218.081 58.9412 217.049C59.1389 216.018 59.5405 215.036 60.1223 214.162C60.6848 213.27 61.4225 212.503 62.2905 211.906C63.1586 211.31 64.1388 210.896 65.1713 210.691C66.2038 210.486 67.2671 210.494 68.2964 210.714C69.3256 210.934 70.2992 211.362 71.1579 211.972C74.8931 214.615 75.7471 218.824 73.4307 222.693C72.8879 223.595 72.169 224.378 71.3171 224.994C70.4651 225.611 69.4977 226.049 68.4727 226.282C67.4478 226.515 66.3866 226.539 65.3526 226.351C64.3187 226.163 63.3334 225.768 62.4558 225.189Z" fill="white"/>
<path d="M24.7331 194.541C22.1756 198.196 17.3943 199.267 13.6844 196.627C9.86988 193.918 9.19014 189.282 11.6967 185.539C14.0031 182.095 18.9284 181.149 22.4904 183.484C23.3702 184.055 24.1274 184.796 24.7178 185.665C25.3082 186.533 25.7198 187.51 25.9286 188.54C26.1374 189.569 26.1392 190.63 25.934 191.66C25.7287 192.691 25.3204 193.67 24.7331 194.541Z" fill="white"/>
<path d="M85.4689 236.206C84.9078 237.093 84.1754 237.86 83.3146 238.459C82.4538 239.059 81.482 239.481 80.4564 239.699C79.4308 239.917 78.3721 239.928 77.3425 239.731C76.3129 239.533 75.3333 239.131 74.4611 238.548C73.5721 237.985 72.8069 237.246 72.212 236.377C71.6172 235.507 71.2053 234.526 71.0012 233.491C70.7971 232.457 70.8052 231.392 71.025 230.361C71.2448 229.33 71.6717 228.354 72.2797 227.494C74.9202 223.746 79.1213 222.893 82.9832 225.207C83.8843 225.75 84.6664 226.47 85.2825 227.323C85.8986 228.177 86.3358 229.147 86.5681 230.174C86.8003 231.202 86.8226 232.266 86.6337 233.302C86.4448 234.339 86.0486 235.327 85.4689 236.206Z" fill="white"/>
<path d="M86.394 251.828C82.5892 249.038 81.9298 244.96 84.257 241.087C84.8141 240.191 85.5447 239.416 86.4055 238.807C87.2663 238.199 88.24 237.769 89.269 237.543C90.2981 237.318 91.3618 237.301 92.3973 237.494C93.4328 237.686 94.4192 238.085 95.2983 238.666C96.1775 239.247 96.9315 239.998 97.516 240.876C98.1005 241.754 98.5036 242.74 98.7015 243.776C98.8994 244.812 98.8882 245.878 98.6685 246.91C98.4487 247.942 98.0249 248.92 97.4221 249.786C94.817 253.538 90.0909 254.533 86.4047 251.824" fill="white"/>
<path d="M95.1888 254.842C95.7479 253.967 96.4736 253.21 97.3243 252.616C98.175 252.022 99.1341 251.601 100.147 251.378C101.16 251.155 102.206 251.134 103.227 251.317C104.248 251.499 105.223 251.881 106.096 252.441C106.969 253 107.724 253.727 108.316 254.579C108.909 255.431 109.329 256.392 109.551 257.406C109.773 258.421 109.793 259.469 109.611 260.492C109.428 261.515 109.047 262.492 108.488 263.367" fill="white"/>
<path d="M58.9858 198.463C62.2872 200.617 63.3753 206.252 61.1462 209.608C59.0984 212.692 53.4624 213.789 50.2896 211.717C46.9932 209.563 45.9052 203.928 48.1343 200.573C50.1821 197.488 55.818 196.392 58.9858 198.463Z" fill="white"/>
<path d="M107.099 268.483C109.214 265.011 114.756 263.585 118.078 265.69C121.401 267.795 122.762 273.252 120.828 276.417" fill="white"/>
<path d="M47.9234 184.769C51.1577 186.885 52.3495 192.809 50.1779 195.9C48.0063 198.99 42.414 200.107 39.3425 198.088C36.1082 195.973 34.9171 190.043 37.0881 186.958C39.2591 183.873 44.8766 182.759 47.9234 184.769Z" fill="white"/>
<path d="M10.3583 170.026C13.6058 172.117 14.8171 178.05 12.614 181.147C10.4108 184.243 4.89056 185.359 1.78508 183.367C-1.46238 181.276 -2.67434 175.348 -0.470569 172.247C1.7332 169.145 7.25789 168.035 10.3583 170.026Z" fill="white"/>
<path d="M25.6107 174.073C28.2402 169.989 31.3456 169.375 35.5626 172.107C39.58 174.707 40.1479 177.838 37.3853 182.091C34.9164 185.906 31.6746 186.545 27.7055 184.012C23.6343 181.391 22.9651 178.206 25.6107 174.073Z" fill="white"/>
<path d="M88.0284 225.612C84.1453 223.09 83.6535 219.881 86.4865 215.554C88.9312 211.813 92.1298 211.278 96.2239 213.923C100.236 216.522 100.804 219.653 98.0466 223.906C95.4993 227.861 92.3057 228.398 88.0284 225.612Z" fill="white"/>
<path d="M84.0868 200.465C88.1422 203.09 88.7384 206.199 85.9954 210.459C83.4192 214.441 80.258 215.007 75.9991 212.239C72.1908 209.778 71.592 206.519 74.1486 202.53C76.7805 198.426 79.9211 197.775 84.0868 200.465Z" fill="white"/>
<path d="M107.632 227.853C111.767 230.503 112.479 233.672 109.859 237.762C107.239 241.852 104.059 242.529 99.9367 239.865C95.9567 237.296 95.2555 234.164 97.765 230.225C100.468 225.996 103.55 225.235 107.632 227.853Z" fill="white"/>
<path d="M62.9609 189.453C63.2145 186.914 65.6334 186.634 67.1968 186.174C68.94 185.669 70.9791 186.289 72.8778 187.437C73.6805 187.934 74.3694 188.595 74.8996 189.377C75.4298 190.159 75.7893 191.044 75.9546 191.975C76.1354 192.966 76.109 193.985 75.8773 194.967C75.6456 195.948 75.2134 196.871 74.6082 197.677C73.5192 199.223 71.8873 200.299 70.0399 200.69C68.4048 201.064 66.4958 200.557 64.6998 199.494C63.8883 199.013 63.1854 198.368 62.6356 197.6C62.0858 196.833 61.7011 195.959 61.5058 195.035C61.1078 193.265 60.8189 190.887 62.9609 189.453Z" fill="white"/>
<path d="M110.201 243.374C110.459 240.836 112.879 240.55 114.441 240.101C116.178 239.605 118.225 240.201 120.127 241.364C120.92 241.868 121.6 242.531 122.124 243.312C122.648 244.092 123.006 244.973 123.174 245.898C123.351 246.89 123.322 247.909 123.09 248.89C122.857 249.871 122.426 250.793 121.822 251.6C120.734 253.147 119.102 254.223 117.254 254.613C115.619 254.987 113.711 254.47 111.914 253.412C111.102 252.931 110.399 252.287 109.849 251.519C109.299 250.751 108.915 249.877 108.72 248.953C108.347 247.191 108.059 244.808 110.201 243.374Z" fill="white"/>
<path d="M-2.25342 157.36C0.253742 157.841 0.843131 160.152 1.25993 161.893C1.64077 163.506 1.1879 165.441 0.103942 167.248C-0.892014 168.873 -2.48858 170.037 -4.33753 170.487C-6.13901 170.965 -8.12729 170.392 -10.0466 169.288C-10.8409 168.785 -11.5271 168.129 -12.0652 167.358C-12.6033 166.586 -12.9824 165.715 -13.1805 164.795C-13.3786 163.875 -13.3916 162.925 -13.2188 161.999C-13.0459 161.074 -12.6908 160.193 -12.174 159.406C-10.9473 157.734 -9.48092 156.374 -7.83344 156.068C-6.0747 155.775 -3.72503 155.261 -2.25342 157.36Z" fill="white"/>
<path d="M60.5925 174.059C63.7876 176.159 64.6618 180.756 62.4709 184.049C60.3961 187.187 55.7426 188.006 52.4757 185.82C49.5276 183.842 48.6545 179.194 50.636 176.106C51.6974 174.526 53.3353 173.426 55.1973 173.044C57.0594 172.661 58.9967 173.025 60.5925 174.059Z" fill="white"/>
<path d="M23.331 158.581C24.1597 159.076 24.8797 159.733 25.4472 160.515C26.0147 161.296 26.418 162.185 26.6327 163.127C26.8473 164.069 26.8689 165.045 26.696 165.996C26.5232 166.947 26.1595 167.853 25.627 168.66C25.0946 169.466 24.4044 170.156 23.5982 170.687C22.7921 171.218 21.8868 171.58 20.9371 171.751C19.9875 171.922 19.0132 171.898 18.0732 171.68C17.1333 171.463 16.2473 171.056 15.4688 170.486C12.427 168.476 11.4742 163.936 13.4334 160.821C14.4674 159.23 16.0804 158.105 17.9289 157.687C19.7775 157.269 21.7156 157.589 23.331 158.581Z" fill="white"/>
<path d="M131.263 254.363C132.831 255.429 133.919 257.068 134.295 258.929C134.671 260.789 134.304 262.724 133.274 264.318C131.17 267.524 126.588 268.387 123.3 266.204C120.322 264.222 119.385 259.597 121.345 256.518C122.396 254.939 124.018 253.831 125.869 253.429C127.72 253.027 129.654 253.362 131.263 254.363Z" fill="white"/>
<path d="M48.9364 159.97C52.1315 162.07 53.0056 166.667 50.8147 169.96C48.74 173.098 44.0865 173.917 40.8196 171.731C37.8715 169.753 36.9984 165.105 38.9799 162.017C40.0412 160.437 41.6792 159.338 43.5412 158.955C45.4032 158.572 47.3406 158.936 48.9364 159.97Z" fill="white"/>
<path d="M11.0424 145.018C14.4711 147.352 15.4176 152.158 13.2848 155.181C11.0711 158.322 6.20045 159.326 3.35097 156.953C1.98427 155.818 0.696541 154.409 0.438022 152.333C0.170403 150.603 0.53388 148.835 1.46182 147.352C2.48716 145.769 4.09617 144.655 5.93744 144.256C7.95879 143.784 9.57578 144.672 11.0424 145.018Z" fill="white"/>
<path d="M132.664 275.716C131.987 273.579 132.964 271.81 133.314 269.837C134.855 268.748 135.9 267.095 137.984 266.867C139.346 266.722 142.352 267.104 143.363 267.785C144.838 268.845 145.875 270.409 146.278 272.183C146.682 273.956 146.423 275.816 145.552 277.412" fill="white"/>
<path d="M111.119 212.319C109.319 214.955 103.658 216.049 101.137 214.271C98.5589 212.42 97.5273 206.699 99.333 204.264C101.139 201.829 106.533 200.775 109.042 202.356C111.696 204.088 112.879 209.745 111.119 212.319Z" fill="white"/>
<path d="M97.2167 188.18C99.8937 189.725 101.225 195.343 99.5696 198.063C98.0524 200.574 92.7392 201.93 90.0059 200.513C87.2727 199.095 85.8323 193.489 87.3791 190.689C88.8489 188.018 94.4631 186.59 97.2167 188.18Z" fill="white"/>
<path d="M111.135 217.99C112.597 217.009 113.999 215.502 115.645 215.119C117.439 214.731 119.313 214.999 120.925 215.876C122.426 216.935 123.492 218.504 123.925 220.291C124.269 222.095 123.979 223.964 123.105 225.579C122.151 227.007 120.698 228.026 119.033 228.436C117.356 228.815 115.158 228.659 113.723 227.798C112.194 226.783 111.086 225.245 110.605 223.472C110.205 221.851 110.905 219.91 111.135 217.99Z" fill="white"/>
<path d="M38.9288 156.42C37.3167 157.413 35.864 158.873 34.2002 159.187C32.8544 159.428 31.468 159.266 30.2135 158.723C28.9589 158.18 27.8917 157.279 27.1446 156.133C26.3976 154.987 26.0037 153.645 26.0121 152.276C26.0204 150.906 26.4306 149.57 27.1916 148.432C28.15 147.072 30.0878 146.014 31.7717 145.662C33.4573 145.344 35.2002 145.669 36.6588 146.572C38.1178 147.681 39.1542 149.256 39.5956 151.036C39.9718 152.731 39.1941 154.637 38.9288 156.42Z" fill="white"/>
<path d="M88.1966 185.206C86.6249 186.204 85.1913 187.677 83.525 188.011C81.723 188.353 79.8585 188.035 78.2722 187.113C76.7976 186.017 75.773 184.419 75.3901 182.62C75.0908 180.808 75.4302 178.948 76.3501 177.359C77.3432 175.957 78.8241 174.978 80.5014 174.615C82.1855 174.303 84.3786 174.494 85.7915 175.373C87.2894 176.434 88.356 178 88.7963 179.784C89.1824 181.439 88.4445 183.355 88.1966 185.206Z" fill="white"/>
<path d="M-0.34733 133.068C1.48441 133.535 1.77807 135.148 2.36259 136.816C3.10334 138.935 2.02214 140.25 1.1919 141.867C0.309044 143.58 -1.11616 144 -2.75787 144.599C-4.9377 145.366 -6.1842 144.126 -7.79192 143.332C-9.54021 142.469 -9.95569 141.016 -10.4298 139.325C-10.9547 137.417 -10.2215 136.138 -9.35405 134.639C-8.95153 133.912 -8.39721 133.28 -7.72896 132.788C-7.06071 132.295 -6.29425 131.952 -5.48192 131.783C-3.40593 131.241 -1.92334 131.753 -0.34733 133.068Z" fill="white"/>
<path d="M63.0328 158.137C62.5712 159.973 60.9565 160.262 59.2913 160.843C57.1722 161.617 55.8644 160.504 54.2508 159.673C52.5409 158.789 52.1224 157.361 51.5298 155.718C50.7666 153.529 52.0035 152.285 52.7972 150.674C53.6539 148.921 55.1095 148.505 56.7979 148.029C58.7027 147.503 59.9836 148.242 61.4754 149.105C62.1995 149.509 62.8283 150.064 63.3189 150.733C63.8095 151.402 64.1505 152.169 64.3186 152.982C64.8633 155.067 64.3465 156.552 63.0328 158.137Z" fill="white"/>
<path d="M64.715 164.547C65.3974 162.795 66.613 161.985 68.4531 161.527C70.4409 161.036 71.897 161.427 73.5301 162.522C74.2436 162.939 74.8647 163.496 75.3556 164.161C75.8464 164.827 76.1965 165.585 76.3846 166.391C76.9273 168.45 76.2628 169.84 75.3031 171.467C74.873 172.174 74.3039 172.785 73.6305 173.265C72.957 173.744 72.1933 174.081 71.3858 174.255C70.5784 174.429 69.744 174.437 68.9336 174.278C68.1231 174.119 67.3536 173.796 66.6718 173.329C65.0862 172.265 63.9322 171.238 63.6193 169.144C63.3557 167.324 63.3519 165.818 64.715 164.547Z" fill="white"/>
<path d="M124.048 231.911C124.73 230.158 125.946 229.348 127.786 228.891C129.774 228.4 131.23 228.79 132.863 229.886C133.576 230.303 134.197 230.862 134.688 231.527C135.18 232.192 135.532 232.95 135.722 233.755C136.265 235.814 135.596 237.203 134.636 238.83C134.236 239.563 133.675 240.195 132.995 240.678C132.314 241.161 131.533 241.483 130.71 241.618C129.906 241.829 129.065 241.855 128.249 241.695C127.433 241.534 126.664 241.192 126 240.692C124.409 239.627 123.255 238.6 122.947 236.507C122.685 234.672 122.681 233.165 124.048 231.911Z" fill="white"/>
<path d="M16.1398 136.06C18.1795 132.872 21.7846 132.113 24.9714 134.196C28.1582 136.28 28.8334 139.799 26.686 143.072C24.7098 146.073 21.2 146.808 18.1289 144.872C14.9101 142.841 14.0956 139.243 16.1398 136.06Z" fill="white"/>
<path d="M146.078 251.67C144.035 254.838 140.423 255.576 137.237 253.482C134.052 251.388 133.415 247.847 135.57 244.596C137.538 241.62 141.067 240.893 144.137 242.839C147.35 244.88 148.139 248.474 146.078 251.67Z" fill="white"/>
<path d="M51.6129 143.789C49.5732 146.977 45.9681 147.736 42.787 145.648C39.6059 143.56 38.9199 140.044 41.0673 136.771C43.0429 133.776 46.5533 133.036 49.6244 134.972C52.8414 137.019 53.6577 140.601 51.6129 143.789Z" fill="white"/>
<path d="M103.684 188.576C100.806 186.653 100.168 182.27 102.11 179.429C103.719 177.053 108.098 176.551 110.796 177.964C112.603 178.896 113 180.716 113.263 181.986C113.484 182.837 113.525 183.725 113.385 184.593C113.245 185.461 112.925 186.29 112.447 187.028C111.341 188.637 109.457 188.349 108.39 189.625C106.802 188.925 104.704 190.379 103.684 188.576Z" fill="white"/>
<path d="M155.712 256.877C158.522 258.643 159.536 262.928 157.795 265.674C156.106 268.334 151.964 269.214 149.284 267.905C147.403 266.991 146.655 265.195 146.366 263.752C146.102 262.446 145.712 260.656 146.899 259.057C148.861 256.435 153.046 255.2 155.712 256.877Z" fill="white"/>
<path d="M122.165 190.77C123.111 192.204 124.6 193.478 124.701 194.852C124.822 196.408 125.095 198.497 123.767 199.817C122.665 200.919 121.244 202.326 119.902 202.401C118.352 202.492 116.262 202.807 114.957 201.411C113.89 200.256 112.535 198.859 112.438 197.486C112.341 196.112 112.309 194.289 113.238 192.828C114.269 191.25 116.03 190.593 117.514 190.073C118.811 189.612 120.594 190.483 122.165 190.77Z" fill="white"/>
<path d="M99.1852 163.711C100.074 165.196 101.41 166.548 101.697 168.125C101.897 169.716 101.522 171.326 100.639 172.664C99.8142 173.896 98.1935 175.218 96.8507 175.293C95.3002 175.389 93.2081 175.724 91.8989 174.323C90.8322 173.167 89.4403 171.772 89.3664 170.421C89.2926 169.071 89.1956 167.23 90.1371 165.755C91.155 164.155 92.9242 163.52 94.4 162.978C95.6905 162.526 97.4679 163.402 99.1852 163.711Z" fill="white"/>
<path d="M86.7554 150.342C88.8396 151.311 90.3406 156.754 88.7754 159.152C87.3853 161.287 82.5593 162.517 80.2747 161.251C77.99 159.984 76.6065 154.931 77.9857 152.501C79.3162 150.178 84.3646 148.934 86.7554 150.342Z" fill="white"/>
<path d="M127.164 214.97C124.874 213.405 123.863 208.283 125.45 206.094C127.078 203.813 132.183 202.904 134.36 204.512C136.537 206.12 137.364 210.943 136.024 213.125C134.551 215.487 128.994 216.48 127.164 214.97Z" fill="white"/>
<path d="M14.7451 129.432C13.5866 131.647 8.11121 132.902 5.92274 131.39C3.93773 130.021 2.55843 125.615 3.94002 122.867C5.14431 120.442 10.2604 119.232 12.667 120.636C15.0735 122.04 16.1986 127.068 14.7451 129.432Z" fill="white"/>
<path d="M38.4009 122.194C39.1526 123.539 40.4889 124.67 40.7896 126.567C41.0472 128.181 40.0459 129.428 40.1248 130.907C38.4574 131.678 37.2852 133.537 35.1785 133.309C33.8586 133.151 31.9873 133.271 31.3898 132.479C30.4808 131.291 29.242 130.202 28.9435 128.372C28.6794 126.727 29.5176 125.471 29.6366 124.01C29.7108 123.392 31.0479 122.766 31.7818 122.165C32.6868 121.421 34.241 121.294 35.5265 121.268C36.4368 121.249 37.3612 121.838 38.4009 122.194Z" fill="white"/>
<path d="M76.7605 145.744C75.713 146.436 74.6288 147.22 73.477 147.884C71.6359 148.948 69.7254 148.112 68.0229 147.594C67.1024 147.314 66.4561 145.817 65.8846 144.767C64.9248 142.977 65.4243 140.996 65.9343 139.269C66.2243 138.307 67.6132 137.548 68.649 136.953C70.545 135.86 72.6852 136.364 74.4918 136.997C75.5207 137.357 76.172 138.982 76.8507 140.122C77.9419 141.929 76.7501 143.78 76.7605 145.744Z" fill="white"/>
<path d="M138.479 219.51C138.981 217.294 141.193 217.158 143.048 217.134C144.162 217.124 145.266 218.311 146.433 218.851C147.739 219.466 148.262 220.448 148.561 221.846C148.86 223.244 148.812 224.369 147.861 225.457C147.416 225.945 147.059 226.505 146.805 227.114C146.301 228.446 145.163 228.618 144.029 228.872C142.896 229.127 141.772 229.429 140.762 228.439C140.276 227.991 139.718 227.628 139.111 227.367C137.796 226.778 137.281 225.775 136.982 224.377C136.683 222.98 136.717 221.843 137.687 220.772C137.979 220.37 138.244 219.948 138.479 219.51Z" fill="white"/>
<path d="M62.9684 124.708C66.0522 126.709 66.5825 129.27 64.5593 132.392C62.5361 135.514 59.9791 136.046 56.8883 133.989C53.8049 131.985 53.2745 129.423 55.2973 126.305C57.3201 123.187 59.8772 122.654 62.9684 124.708Z" fill="white"/>
<path d="M157.405 232.529C160.249 233.791 160.771 237.729 159.161 240.249C158.333 241.488 157.059 242.359 155.605 242.678C154.151 242.997 152.631 242.739 151.363 241.959C150.126 241.131 149.258 239.855 148.94 238.398C148.622 236.942 148.88 235.419 149.659 234.148C151.321 231.547 155.154 230.506 157.405 232.529Z" fill="white"/>
<path d="M0.249093 107.936C3.37797 109.932 3.9592 112.483 1.99277 115.587C0.0263438 118.692 -2.5197 119.275 -5.64536 117.337C-8.78179 115.347 -9.363 112.797 -7.38902 109.686C-5.41504 106.576 -2.86901 105.992 0.249093 107.936Z" fill="white"/>
<path d="M18.3533 110.618C19.9745 107.925 23.4173 107.449 26.1628 109.449C28.6958 111.295 29.2878 114.568 27.2983 117.295C25.4546 119.833 22.1873 120.428 19.4443 118.407C16.8951 116.611 16.1434 113.216 18.3533 110.618Z" fill="white"/>
<path d="M111.649 153.176C113.082 153.502 113.393 154.881 113.646 156.361C113.9 157.841 114.467 159.271 113.212 160.79C112.334 161.862 111.597 162.709 110.154 162.849C108.711 162.989 107.258 163.853 105.703 162.623C104.541 161.697 103.472 160.993 103.35 159.313C103.239 157.805 102.538 156.425 103.673 154.876C105.421 152.49 108.981 151.468 111.649 153.176Z" fill="white"/>
<path d="M42.9819 113.221C43.8385 111.947 45.1413 111.042 46.6322 110.686C48.123 110.329 49.693 110.546 51.0311 111.294C52.709 112.231 52.6416 113.775 53.1687 115.195C53.7541 116.771 53.0793 117.862 52.4076 119.184C51.5079 120.952 49.8751 120.751 48.4559 121.248C47.0368 121.746 46.0635 121.264 44.8181 120.657C43.0489 119.797 42.9448 118.315 42.5991 116.793C42.2635 115.401 41.7028 113.962 42.9819 113.221Z" fill="white"/>
<path d="M116.048 168.1C116.594 166.079 118.42 166.375 119.833 165.841C121.375 165.26 122.486 165.882 123.819 166.566C125.588 167.473 125.333 169.128 125.911 170.508C126.583 172.13 125.718 173.183 125.085 174.484C124.212 176.286 122.514 175.989 121.113 176.505C119.712 177.02 118.721 176.475 117.491 175.869C115.717 175.004 115.728 173.458 115.292 172.008C114.856 170.558 114.775 169.176 116.048 168.1Z" fill="white"/>
<path d="M128.048 181.511C129.592 179.245 133.645 178.472 135.813 180.022C137.982 181.573 138.725 185.681 137.158 187.831C135.645 189.88 131.763 190.637 129.667 189.255C127.151 187.57 126.712 183.319 128.048 181.511Z" fill="white"/>
<path d="M80.7022 127.741C81.7898 125.775 85.85 124.387 88.4066 125.994C90.5343 127.329 91.4675 131.177 90.2351 133.409C88.9287 135.744 84.9642 136.805 82.5888 135.44C80.2134 134.076 79.2909 130.095 80.7022 127.741Z" fill="white"/>
<path d="M168.961 245.609C171.197 247.193 171.921 251.253 170.349 253.408C168.777 255.563 164.624 256.267 162.533 254.669C160.442 253.071 159.814 249.203 161.201 247.139C162.724 244.881 166.791 244.074 168.961 245.609Z" fill="white"/>
<path d="M148.679 200.655C147.135 202.921 143.077 203.693 140.914 202.138C138.751 200.583 138.003 196.48 139.574 194.33C141.088 192.276 144.964 191.523 147.064 192.911C149.607 194.589 150.001 198.871 148.679 200.655Z" fill="white"/>
<path d="M92.0642 140.818C93.3682 138.503 97.4006 137.517 99.7447 138.929C101.873 140.213 102.892 144.035 101.705 146.314C100.518 148.592 96.4649 149.796 94.0885 148.483C91.712 147.169 90.7005 143.204 92.0642 140.818Z" fill="white"/>
<path d="M15.5155 103.535C13.8623 103.974 13.289 105.971 11.5319 105.781C10.2019 105.621 8.3712 105.786 7.70167 104.997C6.79979 103.963 5.24309 103 5.44163 101.261C5.60102 99.9341 5.92728 98.6267 6.18274 97.3108C7.72111 97.3157 8.00081 95.3706 9.6691 95.1906C11.1713 95.0266 12.2592 96.2623 13.6642 95.8399C13.9971 97.3395 15.7445 97.8679 16.0361 99.5836C16.3017 101.132 14.8172 102.13 15.5155 103.535Z" fill="white"/>
<path d="M76.4361 112.643C77.1357 113.909 78.1906 115.12 78.4326 116.481C78.6745 117.712 78.4892 119.427 77.758 120.347C76.9421 121.374 75.3615 122.063 74.0043 122.301C72.762 122.522 71.1179 122.33 70.1348 121.631C69.1517 120.932 68.4233 119.437 68.1894 118.18C67.9556 116.924 68.0906 115.244 68.7944 114.295C69.7465 113.166 71.0479 112.387 72.492 112.082C73.71 111.807 75.1141 112.418 76.4361 112.643Z" fill="white"/>
<path d="M159.825 214.076C157.92 217.131 156.254 217.584 153.403 215.823C150.462 214 150.043 212.156 151.492 209.396C153.082 206.369 156.037 205.979 158.251 207.576C160.971 209.537 161.535 211.331 159.825 214.076Z" fill="white"/>
<path d="M40.1635 104.439C39.0214 107.072 35.7882 107.511 33.6354 105.916C30.7783 103.82 30.441 102.187 32.2807 99.0412C33.7148 96.582 36.7246 96.2086 38.9005 97.8677C41.4916 99.8286 41.9725 101.634 40.1635 104.439Z" fill="white"/>
<path d="M64.2229 100.076C65.7089 100.516 65.5307 102.001 66.0106 103.174C66.6184 104.691 65.558 105.576 65.0705 106.73C64.4293 108.226 63.0667 108.124 61.8976 108.59C60.3784 109.194 59.4954 108.132 58.3427 107.649C56.8551 107.008 56.953 105.637 56.4883 104.466C55.8906 102.95 56.946 102.065 57.4283 100.91C58.0696 99.414 59.3695 99.3542 60.6173 99.0877C62.2443 98.7383 62.2476 98.7541 64.2229 100.076Z" fill="white"/>
<path d="M124.55 141.687C126.316 143.127 127.527 145.642 125.811 148.273C125.476 148.8 125.038 149.253 124.523 149.605C124.007 149.957 123.426 150.199 122.814 150.318C122.202 150.437 121.572 150.43 120.963 150.297C120.354 150.163 119.778 149.907 119.272 149.543C118.746 149.208 118.293 148.77 117.942 148.253C117.592 147.737 117.35 147.155 117.231 146.542C117.113 145.928 117.12 145.298 117.254 144.687C117.387 144.077 117.643 143.5 118.006 142.993C119.244 141.101 121.843 140.092 124.55 141.687Z" fill="white"/>
<path d="M137.892 161.765C136.156 163.797 133.577 164.557 131.31 162.923C129.148 161.368 128.501 158.638 130.128 156.367C131.68 154.204 134.406 153.55 136.672 155.179C138.819 156.737 139.329 159.368 137.892 161.765Z" fill="white"/>
<path d="M51.7714 86.4157C52.5575 86.9302 53.1735 87.6668 53.5414 88.5323C53.9093 89.3978 54.0126 90.3534 53.8383 91.278C53.6639 92.2026 53.2198 93.0547 52.562 93.7266C51.9042 94.3984 51.0624 94.8598 50.143 95.0523C49.2236 95.2449 48.268 95.1598 47.3971 94.8081C46.5262 94.4564 45.7791 93.8536 45.2504 93.0763C44.7217 92.2989 44.4351 91.3817 44.4269 90.4409C44.4187 89.5001 44.6892 88.5779 45.2043 87.7909C45.9171 86.765 46.9944 86.0511 48.2155 85.7954C49.4366 85.5397 50.7089 85.7616 51.7714 86.4157Z" fill="white"/>
<path d="M113.032 128.627C114.054 129.323 114.764 130.391 115.012 131.604C115.26 132.817 115.026 134.079 114.359 135.123C113.693 136.166 112.647 136.907 111.443 137.19C110.24 137.473 108.974 137.274 107.915 136.636C106.893 135.94 106.182 134.872 105.934 133.659C105.686 132.446 105.921 131.184 106.587 130.141C107.253 129.098 108.3 128.356 109.503 128.073C110.707 127.791 111.972 127.989 113.032 128.627Z" fill="white"/>
<path d="M148.477 168.376C150.796 169.949 151.422 172.553 150.103 174.872C148.726 177.276 145.975 177.845 143.661 176.524C141.262 175.141 140.695 172.385 142.015 170.072C143.394 167.642 146.06 167.227 148.477 168.376Z" fill="white"/>
<path d="M2.61644 89.6721C2.11039 90.4631 1.38171 91.0861 0.522494 91.4624C-0.336718 91.8387 -1.28789 91.9515 -2.21082 91.7864C-3.13374 91.6214 -3.987 91.1859 -4.66273 90.535C-5.33846 89.8842 -5.80633 89.0471 -6.00723 88.1297C-6.20813 87.2123 -6.13305 86.2558 -5.79144 85.3809C-5.44984 84.506 -4.85707 83.7521 -4.08804 83.2145C-3.319 82.6768 -2.40822 82.3795 -1.47082 82.3602C-0.533422 82.3409 0.388523 82.6004 1.1785 83.1059C2.20326 83.8145 2.92149 84.8862 3.18835 86.1048C3.45521 87.3233 3.25084 88.5982 2.61644 89.6721Z" fill="white"/>
<path d="M170.278 221.016C172.857 222.821 173.021 225.6 171.83 227.529C171.521 228.071 171.105 228.544 170.607 228.92C170.109 229.296 169.54 229.566 168.935 229.714C168.329 229.862 167.7 229.885 167.086 229.781C166.471 229.678 165.884 229.45 165.361 229.111C164.82 228.801 164.348 228.384 163.974 227.886C163.6 227.387 163.331 226.817 163.184 226.211C163.037 225.604 163.015 224.974 163.119 224.359C163.223 223.743 163.451 223.156 163.789 222.632C165.449 219.963 168.243 220.016 170.278 221.016Z" fill="white"/>
<path d="M28.072 91.0273C27.556 91.8132 26.8191 92.4283 25.9544 92.7948C25.0897 93.1613 24.136 93.2629 23.214 93.0865C22.2919 92.9101 21.4429 92.4638 20.7743 91.8039C20.1056 91.1441 19.6474 90.3003 19.4575 89.3794C19.2675 88.4584 19.3545 87.5016 19.7073 86.6299C20.0601 85.7582 20.6629 85.0108 21.4396 84.4821C22.2162 83.9534 23.1318 83.6672 24.0706 83.6597C25.0093 83.6522 25.9291 83.9237 26.7136 84.4399C27.7368 85.1562 28.4475 86.2376 28.7001 87.4625C28.9527 88.6873 28.728 89.9627 28.072 91.0273Z" fill="white"/>
<path d="M101.528 114.634C103.555 116.378 104.307 118.96 102.68 121.232C101.128 123.394 98.4022 124.049 96.1361 122.415C93.9734 120.86 93.3264 118.13 94.9535 115.859C96.5058 113.696 99.1328 113.179 101.528 114.634Z" fill="white"/>
<path d="M90.7835 107.608C90.0393 108.978 85.5447 110.011 84.1684 109.126C82.9633 108.354 81.936 104.263 82.5781 102.804C83.1777 101.442 87.5641 100.242 89.1326 101.021C90.499 101.689 91.6016 106.092 90.7835 107.608Z" fill="white"/>
<path d="M71.3747 89.4734C72.8909 87.1423 74.405 86.8359 76.7958 88.3718C79.3291 90.002 79.5834 91.4304 77.8167 94.0963C76.3511 96.3051 74.7886 96.5441 72.3406 94.9293C70.0637 93.4276 69.7945 91.9099 71.3747 89.4734Z" fill="white"/>
<path d="M182.024 235.167C184.405 236.701 184.767 238.21 183.285 240.555C181.658 243.13 180.179 243.441 177.607 241.744C175.315 240.241 175.041 238.722 176.615 236.295C178.127 233.959 179.653 233.638 182.024 235.167Z" fill="white"/>
<path d="M161.054 188.681C159.521 191.067 158.014 191.441 155.678 189.963C153.103 188.333 152.789 186.846 154.478 184.273C155.985 181.977 157.496 181.696 159.919 183.266C162.256 184.78 162.575 186.309 161.054 188.681Z" fill="white"/>
<path d="M14.9142 72.1428C17.236 73.655 17.5456 75.1775 16.012 77.5683C14.3837 80.1069 12.9571 80.3674 10.2974 78.5936C8.08829 77.1257 7.85491 75.5661 9.46844 73.1079C10.9678 70.8313 12.4834 70.5558 14.9142 72.1428Z" fill="white"/>
<path d="M171.209 196.17C172.079 196.719 172.704 197.582 172.956 198.581C173.207 199.579 173.066 200.636 172.561 201.534C171.285 203.616 169.335 204.045 167.252 203.019C166.764 202.771 166.333 202.422 165.991 201.994C165.648 201.566 165.4 201.069 165.264 200.538C165.129 200.006 165.108 199.451 165.203 198.911C165.299 198.371 165.508 197.857 165.818 197.404C166.375 196.53 167.253 195.911 168.262 195.68C169.27 195.449 170.329 195.625 171.209 196.17Z" fill="white"/>
<path d="M40.4391 73.4758C41.2734 74.0784 41.8459 74.978 42.0391 75.9903C42.2323 77.0026 42.0317 78.0508 41.4782 78.9199C40.0476 81.1791 37.1218 81.0231 35.7191 79.8884C34.8957 79.2544 34.3531 78.3224 34.2074 77.2922C34.0618 76.2619 34.3247 75.2153 34.9399 74.3765C35.5551 73.5378 36.4736 72.9736 37.4987 72.8049C38.5237 72.6362 39.5738 72.8764 40.4239 73.4739L40.4391 73.4758Z" fill="white"/>
<path d="M66.5568 80.8518C65.6309 82.2825 62.5271 82.9686 61.0887 82.0455C59.6503 81.1224 58.9726 78.0087 59.8997 76.5679C60.8267 75.1271 63.9249 74.4455 65.3677 75.3743C66.8105 76.303 67.4845 79.406 66.5568 80.8518Z" fill="white"/>
<path d="M113.834 103.704C114.942 104.3 115.841 107.923 115.181 109.144C114.586 110.255 110.969 111.157 109.75 110.497C108.642 109.901 107.743 106.283 108.403 105.057C108.998 103.946 112.625 103.045 113.834 103.704Z" fill="white"/>
<path d="M127.198 122.66C126.523 123.715 122.782 124.535 121.73 123.859C120.677 123.182 119.86 119.44 120.535 118.386C121.211 117.331 124.946 116.51 125.999 117.181C127.052 117.852 127.879 121.606 127.198 122.66Z" fill="white"/>
<path d="M144.028 144.843C144.644 143.776 148.338 142.914 149.48 143.575C150.546 144.217 151.4 147.917 150.748 149.036C150.132 150.103 146.412 150.962 145.296 150.304C144.18 149.646 143.378 145.988 144.028 144.843Z" fill="white"/>
<path d="M137.956 130.515C139.058 131.079 140.018 134.704 139.357 135.94C138.793 137.045 135.174 138.008 133.94 137.346C132.838 136.782 131.879 133.156 132.515 131.917C133.1 130.841 136.718 129.888 137.956 130.515Z" fill="white"/>
<path d="M98.261 95.5746C95.9842 94.0729 95.9224 93.6903 97.5276 91.2157C99.0657 88.8306 99.5279 88.7834 102.178 90.556C104.219 91.9216 104.279 92.4941 102.637 94.9746C101.182 97.1845 100.785 97.2397 98.261 95.5746Z" fill="white"/>
<path d="M183.77 214.855C182.275 217.137 181.893 217.199 179.424 215.592C177.045 214.047 176.998 213.584 178.768 210.929C180.126 208.887 180.703 208.828 183.179 210.466C185.378 211.928 185.433 212.325 183.77 214.855Z" fill="white"/>
<path d="M172.749 171.727C173.443 172.163 173.946 172.846 174.156 173.639C174.367 174.433 174.269 175.276 173.882 176C173.668 176.387 173.375 176.724 173.022 176.99C172.669 177.257 172.265 177.446 171.835 177.546C171.404 177.646 170.958 177.654 170.525 177.571C170.091 177.487 169.68 177.313 169.318 177.061C168.656 176.581 168.2 175.869 168.04 175.066C167.881 174.264 168.03 173.43 168.457 172.733C168.916 172.056 169.612 171.576 170.407 171.39C171.202 171.204 172.038 171.324 172.749 171.727Z" fill="white"/>
<path d="M2.15284 59.2268C2.86039 59.6476 3.3837 60.32 3.61868 61.1101C3.85366 61.9002 3.78305 62.75 3.42091 63.4906C3.12667 64.0492 2.67309 64.5074 2.11796 64.8068C1.56283 65.1062 0.931334 65.2333 0.30401 65.1717C-0.323315 65.1102 -0.918047 64.8629 -1.40434 64.4613C-1.89064 64.0597 -2.24647 63.5221 -2.42644 62.9169C-2.60641 62.3118 -2.60236 61.6666 -2.41484 61.0636C-2.22731 60.4606 -1.8648 59.9271 -1.37352 59.5312C-0.882235 59.1353 -0.284469 58.895 0.343579 58.8407C0.971628 58.7865 1.6015 58.9209 2.15284 59.2268Z" fill="white"/>
<path d="M85.9968 78.3909C86.4303 77.7001 87.1075 77.1982 87.8936 76.985C88.6797 76.7717 89.517 76.8628 90.2388 77.2402C90.6248 77.4537 90.9618 77.7458 91.2282 78.0977C91.4946 78.4496 91.6845 78.8536 91.7855 79.2836C91.8866 79.7135 91.8967 80.1599 91.8151 80.5941C91.7335 81.0282 91.562 81.4406 91.3118 81.8044C90.8468 82.4849 90.1358 82.9574 89.3294 83.122C88.523 83.2867 87.6844 83.1306 86.9911 82.6867C86.2978 82.2428 85.8042 81.5461 85.6149 80.7438C85.4255 79.9416 85.5552 79.0968 85.9765 78.3885L85.9968 78.3909Z" fill="white"/>
<path d="M28.803 64.9451C28.367 65.6398 27.6845 66.1434 26.893 66.3544C26.1014 66.5655 25.2596 66.4684 24.537 66.0827C24.1517 65.8673 23.8157 65.5735 23.5506 65.2202C23.2855 64.8669 23.0971 64.462 22.9976 64.0313C22.8981 63.6007 22.8896 63.154 22.9727 62.7198C23.0559 62.2856 23.2288 61.8735 23.4804 61.5102C23.9483 60.8327 24.6607 60.3639 25.4671 60.2029C26.2735 60.0418 27.1106 60.2011 27.8017 60.6471C28.4927 61.093 28.9835 61.7907 29.1704 62.5928C29.3572 63.3948 29.2255 64.2383 28.803 64.9451Z" fill="white"/>
<path d="M53.8701 66.886C53.4471 67.5897 52.7721 68.1052 51.9828 68.3275C51.1934 68.5498 50.3493 68.4622 49.6226 68.0823C49.2375 67.869 48.9006 67.5781 48.6332 67.228C48.3659 66.8778 48.1738 66.4759 48.0691 66.0476C47.9644 65.6194 47.9493 65.1741 48.0248 64.7396C48.1004 64.3052 48.2649 63.891 48.508 63.5233C48.9744 62.8581 49.6776 62.3974 50.4728 62.2361C51.268 62.0748 52.0945 62.2252 52.782 62.6563C53.4695 63.0874 53.9656 63.7665 54.1681 64.5534C54.3705 65.3403 54.2639 66.1752 53.8701 66.886Z" fill="white"/>
<path d="M161.746 162.661C161.31 163.355 160.628 163.859 159.836 164.07C159.045 164.281 158.203 164.184 157.48 163.798C157.096 163.582 156.76 163.288 156.496 162.935C156.231 162.582 156.043 162.177 155.943 161.746C155.844 161.316 155.835 160.869 155.918 160.435C156.001 160.001 156.173 159.589 156.424 159.226C156.904 158.562 157.616 158.105 158.418 157.945C159.22 157.785 160.052 157.934 160.749 158.363C161.424 158.823 161.901 159.52 162.086 160.316C162.27 161.113 162.149 161.95 161.746 162.661Z" fill="white"/>
<path d="M194.841 223.482C195.152 223.925 195.36 224.11 195.416 224.327C195.707 225.335 195.926 226.363 196.073 227.402C196.036 227.623 195.954 227.835 195.833 228.024C195.712 228.212 195.553 228.374 195.367 228.499C195.012 228.668 194.627 228.763 194.235 228.78C191.018 229.468 191.521 229.764 190.763 226.554C190.315 224.65 190.177 224.386 192.402 224.011C193.246 223.861 194.073 223.636 194.841 223.482Z" fill="white"/>
<path d="M40.6176 49.0899C42.0556 49.9307 42.3905 50.9011 41.6613 52.232C40.8418 53.7166 39.8473 54.0957 38.5559 53.401C36.896 52.5284 36.5518 51.4644 37.4528 49.9845C38.3538 48.5046 39.2405 48.2976 40.6176 49.0899Z" fill="white"/>
<path d="M77.836 64.5418C79.2698 65.4181 79.5274 66.3484 78.7353 67.7335C77.8954 69.1744 76.9265 69.5104 75.5984 68.7804C73.9338 67.8611 73.6538 66.8612 74.6322 65.3341C75.531 63.9156 76.4498 63.697 77.836 64.5418Z" fill="white"/>
<path d="M15.1244 47.7918C16.5606 48.6478 16.8714 49.6052 16.1201 50.9489C15.3005 52.3923 14.3092 52.7872 13.0032 52.0856C11.3597 51.2047 11.0307 50.1424 11.9475 48.6592C12.8643 47.1761 13.7795 46.9879 15.1244 47.7918Z" fill="white"/>
<path d="M181.148 186.668C182.023 185.232 182.952 184.968 184.334 185.761C185.772 186.602 186.107 187.577 185.372 188.908C184.455 190.57 183.456 190.851 181.933 189.872C180.527 188.978 180.304 188.057 181.148 186.668Z" fill="white"/>
<path d="M127.247 96.1923C126.372 97.6291 125.443 97.8927 124.061 97.0946C122.623 96.2538 122.288 95.2834 123.022 93.9531C123.941 92.2852 124.934 92.0036 126.463 92.9838C127.868 93.8823 128.091 94.8032 127.247 96.1923Z" fill="white"/>
<path d="M135.21 107.206C136.085 105.77 137.014 105.506 138.396 106.304C139.834 107.145 140.169 108.115 139.435 109.446C138.516 111.114 137.518 111.395 135.994 110.415C134.604 109.518 134.381 108.597 135.21 107.206Z" fill="white"/>
<path d="M111.363 80.5784C112.524 80.2835 113.703 80.0662 114.893 79.9281C115.501 79.9035 116.266 83.0585 115.704 83.2993C114.715 83.7202 113.299 84.2749 112.559 83.8622C111.818 83.4495 111.813 81.9122 111.363 80.5784Z" fill="white"/>
<path d="M163.384 137.443C161.968 137.658 160.885 137.965 159.807 137.928C159.173 137.909 158.554 134.73 159.121 134.536C160.144 134.181 161.565 133.668 162.276 134.108C162.988 134.548 162.995 136.065 163.384 137.443Z" fill="white"/>
<path d="M150.751 119.403C151.056 120.56 151.286 121.736 151.441 122.924C151.483 123.515 148.332 124.334 148.087 123.775C147.651 122.792 147.082 121.378 147.481 120.66C147.88 119.942 149.413 119.864 150.751 119.403Z" fill="white"/>
<path d="M66.0621 50.7935C66.2828 52.2025 66.5886 53.2877 66.5619 54.3638C66.5415 55.0038 63.3724 55.6358 63.1745 55.0621C62.8198 54.043 62.3034 52.619 62.7354 51.9257C63.1675 51.2324 64.6899 51.1992 66.0621 50.7935Z" fill="white"/>
<path d="M195.27 199.399C196.823 200.351 196.775 200.324 195.958 201.742C195.417 202.705 194.97 203.094 193.898 202.323C192.482 201.299 192.469 201.406 193.276 199.986C193.819 199.049 194.332 198.494 195.27 199.399Z" fill="white"/>
<path d="M171.145 148.001C171.555 147.022 172.092 146.696 173.154 147.456C174.571 148.479 174.583 148.373 173.777 149.792C173.23 150.754 172.789 151.143 171.717 150.372C170.286 149.347 170.23 149.428 171.145 148.001Z" fill="white"/>
<path d="M102.76 67.3752C103.98 67.8557 103.644 68.5606 103.023 69.4624C102.088 70.7944 102.177 70.7382 100.641 69.8549C99.4835 69.2019 99.7031 68.6115 100.323 67.7609C101.284 66.3807 101.237 66.3494 102.76 67.3752Z" fill="white"/>
<path d="M0.158026 35.3818C1.2415 35.2446 2.35215 34.8383 2.58408 35.1283C3.02894 35.6956 2.99993 36.6635 3.16537 37.4645C2.44562 37.5631 1.56616 37.9664 1.08724 37.6828C0.608315 37.3991 0.526691 36.4128 0.158026 35.3818Z" fill="white"/>
<path d="M25.6679 36.8824C26.61 36.6409 27.3155 36.3196 28.0174 36.3268C28.7193 36.3339 29.2485 38.2067 28.7108 38.5841C28.173 38.9615 27.1815 39.3153 26.6876 39.0709C26.1937 38.8266 26.0665 37.8348 25.6679 36.8824Z" fill="white"/>
<path d="M91.0478 52.7296C91.2275 53.7534 91.5044 54.4804 91.4318 55.1707C91.3592 55.8609 89.495 56.3053 89.1481 55.7342C88.8011 55.1632 88.5249 54.174 88.7949 53.6771C89.0649 53.1802 90.0506 53.0879 91.0478 52.7296Z" fill="white"/>
<path d="M53.2951 39.249L53.8363 40.5526L51.4838 41.0051C51.3675 40.3076 50.9326 39.4433 51.2184 38.9432C51.7736 37.8226 52.4031 38.9877 53.2951 39.249Z" fill="white"/>
<path d="M187.424 138.027C186.711 137.941 186.252 137.958 185.917 137.759C185.746 137.651 185.735 136.889 185.821 136.853C186.213 136.678 186.648 136.622 187.072 136.69C187.215 136.738 187.246 137.291 187.424 138.027Z" fill="white"/>
<path d="M140.19 84.1012C139.482 84.0162 139.018 84.0325 138.683 83.8329C138.516 83.7256 138.5 82.963 138.587 82.9271C138.974 82.7639 139.4 82.7135 139.815 82.7816C139.975 82.8112 140.006 83.3648 140.19 84.1012Z" fill="white"/>
<path d="M149.732 95.5414C150.45 95.5865 150.984 95.5016 151.058 95.6493C151.188 96.0464 151.253 96.462 151.249 96.8799C150.917 96.912 150.434 97.0904 150.293 96.9399C150.033 96.6671 149.976 96.2028 149.732 95.5414Z" fill="white"/>
<path d="M207.361 215.503C206.658 215.552 206.215 215.694 205.861 215.569C205.663 215.505 205.622 214.991 205.516 214.68C205.893 214.492 206.298 214.367 206.715 214.31C206.882 214.33 207.023 214.861 207.364 215.478" fill="white"/>
<path d="M183.57 161.581C184.288 161.626 184.822 161.536 184.897 161.683C185.028 162.082 185.092 162.5 185.087 162.919C184.76 162.952 184.277 163.125 184.136 162.98C183.876 162.707 183.814 162.242 183.57 161.581Z" fill="white"/>
<path d="M175.502 124.358C174.804 124.408 174.356 124.55 174.001 124.43C173.804 124.36 173.763 123.846 173.657 123.535C174.035 123.357 174.441 123.242 174.857 123.196C175.02 123.201 175.163 123.721 175.502 124.358Z" fill="white"/>
<path d="M208.808 188.761C208.856 189.466 208.998 189.91 208.878 190.27C208.809 190.462 208.296 190.504 207.985 190.615C207.808 190.236 207.694 189.83 207.647 189.413C207.651 189.249 208.175 189.076 208.808 188.761Z" fill="white"/>
<path d="M195.655 175.002C196.373 175.047 196.906 174.962 196.982 175.104C197.111 175.503 197.175 175.921 197.172 176.34C196.84 176.372 196.357 176.545 196.216 176.4C195.956 176.127 195.899 175.663 195.655 175.002Z" fill="white"/>
<path d="M162.884 109.306C162.934 110.006 163.075 110.455 162.955 110.81C162.886 111.002 162.373 111.043 162.062 111.155C161.885 110.776 161.771 110.37 161.724 109.953C161.729 109.789 162.249 109.641 162.884 109.306Z" fill="white"/>
<path d="M127.693 68.7706C127.829 69.5168 128.054 70.0372 127.916 70.1183C127.568 70.3511 127.161 70.4805 126.742 70.4913C126.651 70.4804 126.344 69.7958 126.457 69.6244C126.659 69.3043 127.091 69.1661 127.693 68.7706Z" fill="white"/>
</g>
<defs>
<clipPath id="clip0_0_2236">
<rect width="421.404" height="237.04" fill="white" transform="translate(198.919 285.768) rotate(-173.153)"/>
</clipPath>
</defs>
</svg>
