<svg xmlns="http://www.w3.org/2000/svg" viewBox="0 0 2715.54 529.96"><defs><style>.cls-1{fill:#fff;}</style></defs><g id="Layer_2" data-name="Layer 2"><g id="Layer_1-2" data-name="Layer 1"><path class="cls-1" d="M215.73,0V52.61A19.49,19.49,0,0,1,196.24,72.1H162c-50.5,0-93.92,38.84-96.24,89.27a93.68,93.68,0,0,0,93.62,98.18h44.69V215.74H159.39a50,50,0,0,1-49.81-53.15c1.68-26.41,24.18-46.67,50.63-46.67h36a19.49,19.49,0,0,1,19.49,19.49v68.67h43.82V43.82A43.82,43.82,0,0,0,215.73,0Z"/><path class="cls-1" d="M215.73,325.88v44.7a49.94,49.94,0,0,1-53.43,49.78c-26.47-1.81-46.38-25.11-46.38-51.65v-35a19.5,19.5,0,0,1,19.49-19.5h68.67V270.41H43.82A43.82,43.82,0,0,0,0,314.23H52.61a19.49,19.49,0,0,1,19.48,19.5V368c0,50.5,38.85,93.92,89.28,96.25a93.69,93.69,0,0,0,98.18-93.62v-44.7Z"/><path class="cls-1" d="M477.35,215.74a19.5,19.5,0,0,1-19.49-19.5V162c0-50.49-38.84-93.91-89.27-96.24a93.68,93.68,0,0,0-98.18,93.62v44.69h43.82V159.39a49.94,49.94,0,0,1,53.15-49.81c26.4,1.68,46.66,24.18,46.66,50.63v36a19.5,19.5,0,0,1-19.49,19.5H325.88v43.81H486.14A43.81,43.81,0,0,0,530,215.74Z"/><path class="cls-1" d="M314.23,530V477.35a19.49,19.49,0,0,1,19.48-19.49H368c50.5,0,93.92-38.84,96.24-89.27a93.68,93.68,0,0,0-93.62-98.18H325.88v43.81h44.69a50,50,0,0,1,49.81,53.15C418.7,393.78,396.2,414,369.75,414h-36a19.49,19.49,0,0,1-19.48-19.49V325.88H270.41V486.14A43.82,43.82,0,0,0,314.23,530Z"/><rect class="cls-1" x="271.02" y="214.79" width="44.15" height="44.15"/><rect class="cls-1" x="214.79" y="214.79" width="44.15" height="44.15"/><rect class="cls-1" x="214.8" y="271.02" width="44.14" height="44.16"/><rect class="cls-1" x="271.02" y="271.02" width="44.14" height="44.16"/><path class="cls-1" d="M664.08,389.7q-13.11,0-20-7.25t-6.9-20.35V170.62q0-13.45,7.08-20.35t20.18-6.9h83.83q40.71,0,62.79,20.53T833.13,221q0,36.57-22.08,57.27T748.26,299H690.65V362.1q0,13.11-6.73,20.35T664.08,389.7Zm26.57-132.14h48.64q20.7,0,31.57-9.31T781.73,221q0-17.93-10.87-26.91t-31.57-9H690.65Z"/><path class="cls-1" d="M905.58,389.7q-13.11,0-20-7.25t-6.9-20.35V170.62q0-13.45,7.08-20.35t20.18-6.9h83.83q40.71,0,62.79,19.66t22.08,54.86q0,22.77-10,39.33t-28.81,25.53q-18.81,9-46.06,9l2.76-5.87h14.15q14.49,0,25.36,7.08t18.8,21.56l21.39,39.67a31.68,31.68,0,0,1,4.48,16.91,18.17,18.17,0,0,1-6.21,13.45q-5.87,5.18-17.25,5.18t-18.45-4.83q-7.08-4.83-12.6-14.84L989.07,309q-5.18-9.66-12.59-13.11t-18.11-3.45H932.15V362.1q0,13.11-6.73,20.35T905.58,389.7Zm26.57-135.93h48q21.39,0,32.26-8.63t10.87-25.87q0-16.9-10.87-25.53t-32.26-8.63h-48Z"/><path class="cls-1" d="M1242.3,390.39q-35.88,0-63-15.7a108.47,108.47,0,0,1-42.09-44q-15-28.27-15-65.89,0-28.63,8.46-51.58A110.79,110.79,0,0,1,1155,173.9a109.38,109.38,0,0,1,38.12-25.36q22.26-9,49.16-9,36.57,0,63.48,15.53a107.94,107.94,0,0,1,41.92,43.64q15,28.13,15,65.72,0,28.65-8.63,51.75a114.46,114.46,0,0,1-24.49,39.68,108.43,108.43,0,0,1-37.95,25.53Q1269.56,390.39,1242.3,390.39Zm0-45.54q20.35,0,34.68-9.49t22.08-27.6q7.76-18.11,7.76-42.95,0-38-16.91-58.82t-47.61-20.88q-20,0-34.5,9.32t-22.08,27.25q-7.59,17.94-7.59,43.13,0,37.6,16.91,58.82T1242.3,344.85Z"/><path class="cls-1" d="M1444.47,386.59q-13.46,0-20.7-7.24t-7.24-20.7V171.31q0-13.45,7.24-20.7t20.7-7.24h67.28q62.43,0,96.43,31.57t34,89.87q0,29.32-8.8,51.92A102.14,102.14,0,0,1,1608,354.85q-16.56,15.52-40.71,23.64t-55.54,8.1ZM1470,342.78h38.64q19.66,0,34.16-4.83a57.85,57.85,0,0,0,38.64-38.81q4.83-14.67,4.83-34.33,0-39.33-19.49-58.48t-58.14-19.15H1470Z"/><path class="cls-1" d="M1697,389.7q-9.66,0-15.69-4.49a19.26,19.26,0,0,1-7.59-12.07q-1.56-7.59,2.93-16.91L1765,162.69q5.52-11.73,13.11-17.08a31.61,31.61,0,0,1,35.19,0q7.58,5.35,12.76,17.08l89,193.54q4.48,9.31,3.28,17.08a17.73,17.73,0,0,1-7.07,12.08q-5.87,4.31-15.18,4.31-11.73,0-18.11-5.52t-11.22-17.25l-20.7-48,21.39,14.84H1723.58L1745,319l-20.36,48q-5.17,12.07-10.86,17.42T1697,389.7Zm98-189.41-44.16,105.23-9.31-13.46h108l-9.31,13.46-44.51-105.23Z"/><path class="cls-1" d="M1989.23,389.7q-13.11,0-20-7.25t-6.9-20.35V170.62q0-13.45,7.07-20.35t20.18-6.9h83.84q40.7,0,62.79,19.66t22.08,54.86q0,22.77-10,39.33t-28.8,25.53q-18.81,9-46.06,9l2.76-5.87h14.14q14.49,0,25.36,7.08t18.8,21.56l21.39,39.67q4.83,8.63,4.49,16.91a18.17,18.17,0,0,1-6.21,13.45q-5.88,5.18-17.25,5.18t-18.46-4.83q-7.08-4.83-12.59-14.84L2072.72,309q-5.17-9.66-12.59-13.11T2042,292.41h-26.22V362.1q0,13.11-6.72,20.35T1989.23,389.7Zm26.56-135.93h48q21.39,0,32.26-8.63t10.86-25.87q0-16.9-10.86-25.53t-32.26-8.63h-48Z"/><path class="cls-1" d="M2239.7,389.7q-12.09,0-18.46-6.73t-6.38-19.15V167.17q0-13.11,6.38-20t17.08-6.9q9.32,0,14.32,3.63t11.55,11.9L2385.29,310H2376V165.79q0-12.07,6.39-18.8t18.45-6.73q12.08,0,18.46,6.73t6.38,18.8V364.86q0,11.38-5.86,18.11t-15.87,6.73q-9.66,0-15.35-3.8t-12.25-12.07L2255.57,219.61h9V363.82q0,12.42-6.21,19.15T2239.7,389.7Z"/><path class="cls-1" d="M2494,389.7q-9.66,0-15.69-4.49a19.26,19.26,0,0,1-7.59-12.07q-1.56-7.59,2.93-16.91l88.32-193.54q5.51-11.73,13.11-17.08a31.61,31.61,0,0,1,35.19,0q7.58,5.35,12.76,17.08l89,193.54q4.48,9.31,3.28,17.08a17.73,17.73,0,0,1-7.07,12.08q-5.88,4.31-15.18,4.31-11.73,0-18.11-5.52t-11.22-17.25L2643,319l21.39,14.84H2520.53L2541.92,319l-20.36,48q-5.17,12.07-10.86,17.42T2494,389.7Zm98-189.41-44.16,105.23-9.31-13.46h108l-9.31,13.46-44.51-105.23Z"/></g></g></svg>