<svg xmlns="http://www.w3.org/2000/svg" xmlns:xlink="http://www.w3.org/1999/xlink" viewBox="0 0 1174.82 1174.82"><defs><style>.cls-1{fill:url(#linear-gradient);}.cls-2{fill:url(#linear-gradient-2);}.cls-3{fill:url(#linear-gradient-3);}.cls-4{fill:url(#linear-gradient-4);}.cls-5{fill:#fbbc17;}.cls-6{fill:#ef1262;}</style><linearGradient id="linear-gradient" x1="97.79" y1="11.51" x2="1481.1" y2="1301.46" gradientUnits="userSpaceOnUse"><stop offset="0.23" stop-color="#ef1262"/><stop offset="0.31" stop-color="#cc227f"/><stop offset="0.42" stop-color="#a235a1"/><stop offset="0.53" stop-color="#8045bd"/><stop offset="0.64" stop-color="#6551d2"/><stop offset="0.76" stop-color="#525ae2"/><stop offset="0.87" stop-color="#475feb"/><stop offset="1" stop-color="#4361ee"/></linearGradient><linearGradient id="linear-gradient-2" x1="25.11" y1="1015.25" x2="853.34" y2="286.07" gradientUnits="userSpaceOnUse"><stop offset="0" stop-color="#4361ee"/><stop offset="1" stop-color="#ef1262"/></linearGradient><linearGradient id="linear-gradient-3" x1="1156.34" y1="184.46" x2="273.08" y2="853.1" xlink:href="#linear-gradient-2"/><linearGradient id="linear-gradient-4" x1="1031.35" y1="785.69" x2="2414.65" y2="2075.64" gradientTransform="translate(2108.38 1949) rotate(180)" xlink:href="#linear-gradient"/></defs><g id="Layer_2" data-name="Layer 2"><g id="Layer_1-2" data-name="Layer 1"><path class="cls-1" d="M478.24,0V116.62A43.21,43.21,0,0,1,435,159.84h-75.9c-111.95,0-208.21,86.09-213.35,197.9A207.68,207.68,0,0,0,353.34,575.38h99.07V478.26H353.34A110.77,110.77,0,0,1,242.92,360.42C246.63,301.89,296.52,257,355.16,257H435a43.21,43.21,0,0,1,43.2,43.22V452.41h97.14V97.15A97.15,97.15,0,0,0,478.24,0Z"/><path class="cls-2" d="M478.24,722.42V821.5A110.72,110.72,0,0,1,359.79,931.86C301.12,927.84,257,876.2,257,817.37V739.81a43.23,43.23,0,0,1,43.23-43.22H452.41V599.44H97.15A97.16,97.16,0,0,0,0,696.59H116.62a43.2,43.2,0,0,1,43.2,43.22v75.87c0,112,86.11,208.21,197.92,213.37A207.69,207.69,0,0,0,575.38,821.5V722.42Z"/><path class="cls-3" d="M1058.2,478.26A43.23,43.23,0,0,1,1015,435v-75.9c0-111.92-86.09-208.18-197.89-213.35A207.69,207.69,0,0,0,599.44,353.34v99.07h97.15V353.34A110.72,110.72,0,0,1,814.42,242.92c58.51,3.71,103.44,53.6,103.44,112.24V435a43.23,43.23,0,0,1-43.22,43.22H722.42v97.12h355.26a97.13,97.13,0,0,0,97.14-97.12Z"/><path class="cls-4" d="M696.59,1174.82V1058.2a43.21,43.21,0,0,1,43.2-43.22h75.89c112,0,208.21-86.09,213.35-197.89A207.68,207.68,0,0,0,821.48,599.44H722.42v97.12h99.06A110.77,110.77,0,0,1,931.91,814.4c-3.72,58.53-53.6,103.46-112.25,103.46H739.79a43.21,43.21,0,0,1-43.2-43.22V722.42H599.44v355.26A97.15,97.15,0,0,0,696.59,1174.82Z"/><rect class="cls-5" x="600.8" y="476.16" width="97.87" height="97.87"/><rect class="cls-6" x="476.16" y="476.16" width="97.87" height="97.87"/><rect class="cls-5" x="476.16" y="600.8" width="97.86" height="97.89"/><rect class="cls-6" x="600.8" y="600.8" width="97.86" height="97.89"/></g></g></svg>