<svg xmlns="http://www.w3.org/2000/svg" xmlns:xlink="http://www.w3.org/1999/xlink" width="200" zoomAndPan="magnify" viewBox="0 0 375 374.999991" height="200" preserveAspectRatio="xMidYMid meet" version="1.0"><defs><clipPath id="824b2a8987"><path d="M 49.253906 84.160156 L 326 84.160156 L 326 291.160156 L 49.253906 291.160156 Z M 49.253906 84.160156 " clip-rule="nonzero"/></clipPath><clipPath id="0933ee2eec"><path d="M 322.507812 291.160156 L 52.824219 291.160156 C 51.164062 291.160156 49.8125 289.8125 49.8125 288.148438 L 49.8125 161.820312 C 49.8125 160.160156 51.164062 158.808594 52.824219 158.808594 C 54.484375 158.808594 55.835938 160.160156 55.835938 161.820312 L 55.835938 285.136719 L 319.496094 285.136719 L 319.496094 161.820312 C 319.496094 160.160156 320.84375 158.808594 322.507812 158.808594 C 324.167969 158.808594 325.515625 160.160156 325.515625 161.820312 L 325.515625 288.148438 C 325.515625 289.8125 324.167969 291.160156 322.507812 291.160156 Z M 187.664062 245.636719 C 187.132812 245.636719 186.59375 245.492188 186.117188 245.210938 L 51.277344 164.40625 C 49.851562 163.554688 49.386719 161.703125 50.242188 160.277344 C 51.09375 158.855469 52.945312 158.390625 54.367188 159.242188 L 187.660156 239.125 L 320.953125 159.242188 C 322.375 158.390625 324.226562 158.855469 325.078125 160.277344 C 325.929688 161.703125 325.464844 163.554688 324.042969 164.40625 L 189.214844 245.210938 C 188.738281 245.5 188.199219 245.636719 187.664062 245.636719 Z M 322.5 291.160156 C 321.972656 291.160156 321.441406 291.023438 320.957031 290.734375 L 215.5625 227.566406 C 214.140625 226.714844 213.675781 224.863281 214.527344 223.4375 C 215.382812 222.015625 217.230469 221.542969 218.65625 222.402344 L 324.054688 285.5625 C 325.480469 286.417969 325.941406 288.269531 325.089844 289.691406 C 324.527344 290.640625 323.527344 291.160156 322.5 291.160156 Z M 52.824219 291.160156 C 51.800781 291.160156 50.804688 290.640625 50.242188 289.699219 C 49.386719 288.273438 49.851562 286.421875 51.277344 285.570312 L 156.675781 222.410156 C 158.101562 221.554688 159.949219 222.019531 160.800781 223.445312 C 161.65625 224.867188 161.191406 226.71875 159.769531 227.574219 L 54.375 290.734375 C 53.882812 291.023438 53.351562 291.160156 52.824219 291.160156 Z M 322.5 164.832031 C 321.972656 164.832031 321.441406 164.695312 320.957031 164.40625 L 282.070312 141.101562 C 280.644531 140.25 280.179688 138.398438 281.035156 136.972656 C 281.886719 135.550781 283.738281 135.085938 285.160156 135.9375 L 324.050781 159.242188 C 325.472656 160.097656 325.9375 161.945312 325.085938 163.371094 C 324.527344 164.3125 323.527344 164.832031 322.5 164.832031 Z M 52.824219 164.832031 C 51.800781 164.832031 50.804688 164.3125 50.242188 163.371094 C 49.386719 161.945312 49.851562 160.097656 51.277344 159.242188 L 90.164062 135.9375 C 91.589844 135.085938 93.4375 135.550781 94.292969 136.972656 C 95.144531 138.398438 94.679688 140.25 93.257812 141.101562 L 54.367188 164.40625 C 53.882812 164.695312 53.351562 164.832031 52.824219 164.832031 Z M 283.617188 188.136719 C 281.957031 188.136719 280.605469 186.789062 280.605469 185.125 L 280.605469 90.171875 L 94.722656 90.171875 L 94.722656 185.125 C 94.722656 186.789062 93.375 188.136719 91.714844 188.136719 C 90.050781 188.136719 88.703125 186.789062 88.703125 185.125 L 88.703125 87.160156 C 88.703125 85.496094 90.050781 84.148438 91.714844 84.148438 L 283.617188 84.148438 C 285.277344 84.148438 286.628906 85.496094 286.628906 87.160156 L 286.628906 185.125 C 286.628906 186.789062 285.277344 188.136719 283.617188 188.136719 Z M 264.554688 113.398438 L 242.53125 113.398438 C 240.871094 113.398438 239.523438 112.050781 239.523438 110.386719 C 239.523438 108.726562 240.871094 107.375 242.53125 107.375 L 264.554688 107.375 C 266.214844 107.375 267.566406 108.726562 267.566406 110.386719 C 267.566406 112.050781 266.222656 113.398438 264.554688 113.398438 Z M 228.632812 113.398438 L 180.730469 113.398438 C 179.070312 113.398438 177.71875 112.050781 177.71875 110.386719 C 177.71875 108.726562 179.070312 107.375 180.730469 107.375 L 228.632812 107.375 C 230.292969 107.375 231.640625 108.726562 231.640625 110.386719 C 231.640625 112.050781 230.292969 113.398438 228.632812 113.398438 Z M 202.753906 126.558594 L 180.730469 126.558594 C 179.070312 126.558594 177.71875 125.210938 177.71875 123.546875 C 177.71875 121.882812 179.070312 120.535156 180.730469 120.535156 L 202.753906 120.535156 C 204.414062 120.535156 205.761719 121.882812 205.761719 123.546875 C 205.761719 125.210938 204.414062 126.558594 202.753906 126.558594 Z M 264.554688 126.558594 L 216.652344 126.558594 C 214.992188 126.558594 213.644531 125.210938 213.644531 123.546875 C 213.644531 121.882812 214.992188 120.535156 216.652344 120.535156 L 264.554688 120.535156 C 266.214844 120.535156 267.566406 121.882812 267.566406 123.546875 C 267.566406 125.210938 266.222656 126.558594 264.554688 126.558594 Z M 264.554688 139.714844 L 242.53125 139.714844 C 240.871094 139.714844 239.523438 138.367188 239.523438 136.703125 C 239.523438 135.042969 240.871094 133.691406 242.53125 133.691406 L 264.554688 133.691406 C 266.214844 133.691406 267.566406 135.042969 267.566406 136.703125 C 267.566406 138.367188 266.222656 139.714844 264.554688 139.714844 Z M 228.632812 139.714844 L 180.730469 139.714844 C 179.070312 139.714844 177.71875 138.367188 177.71875 136.703125 C 177.71875 135.042969 179.070312 133.691406 180.730469 133.691406 L 228.632812 133.691406 C 230.292969 133.691406 231.640625 135.042969 231.640625 136.703125 C 231.640625 138.367188 230.292969 139.714844 228.632812 139.714844 Z M 202.753906 152.878906 L 180.730469 152.878906 C 179.070312 152.878906 177.71875 151.53125 177.71875 149.867188 C 177.71875 148.207031 179.070312 146.855469 180.730469 146.855469 L 202.753906 146.855469 C 204.414062 146.855469 205.761719 148.207031 205.761719 149.867188 C 205.761719 151.53125 204.414062 152.878906 202.753906 152.878906 Z M 264.554688 152.878906 L 216.652344 152.878906 C 214.992188 152.878906 213.644531 151.53125 213.644531 149.867188 C 213.644531 148.207031 214.992188 146.855469 216.652344 146.855469 L 264.554688 146.855469 C 266.214844 146.855469 267.566406 148.207031 267.566406 149.867188 C 267.566406 151.53125 266.222656 152.878906 264.554688 152.878906 Z M 137.816406 160.195312 C 121.242188 160.195312 107.761719 146.707031 107.761719 130.128906 C 107.761719 113.550781 121.242188 100.058594 137.816406 100.058594 C 154.386719 100.058594 167.871094 113.550781 167.871094 130.128906 C 167.871094 146.707031 154.386719 160.195312 137.816406 160.195312 Z M 137.816406 106.078125 C 124.566406 106.078125 113.78125 116.863281 113.78125 130.128906 C 113.78125 143.394531 124.558594 154.179688 137.816406 154.179688 C 151.066406 154.179688 161.84375 143.394531 161.84375 130.128906 C 161.84375 116.863281 151.066406 106.078125 137.816406 106.078125 Z M 129.796875 143.460938 C 129 143.460938 128.234375 143.140625 127.667969 142.578125 L 123.085938 137.992188 C 121.914062 136.816406 121.914062 134.910156 123.085938 133.730469 C 124.257812 132.550781 126.164062 132.550781 127.34375 133.730469 L 129.800781 136.191406 L 148.300781 117.679688 C 149.472656 116.5 151.378906 116.5 152.558594 117.679688 C 153.730469 118.851562 153.730469 120.761719 152.558594 121.941406 L 131.925781 142.582031 C 131.355469 143.140625 130.589844 143.460938 129.796875 143.460938 Z M 247.042969 172.695312 L 215.84375 172.695312 C 214.183594 172.695312 212.835938 171.347656 212.835938 169.683594 C 212.835938 168.019531 214.183594 166.671875 215.84375 166.671875 L 247.035156 166.671875 C 248.695312 166.671875 250.042969 168.019531 250.042969 169.683594 C 250.042969 171.347656 248.703125 172.695312 247.042969 172.695312 Z M 196.148438 172.695312 L 128.289062 172.695312 C 126.628906 172.695312 125.28125 171.347656 125.28125 169.683594 C 125.28125 168.019531 126.628906 166.671875 128.289062 166.671875 L 196.144531 166.671875 C 197.804688 166.671875 199.152344 168.019531 199.152344 169.683594 C 199.152344 171.347656 197.8125 172.695312 196.148438 172.695312 Z M 159.484375 185.859375 L 128.296875 185.859375 C 126.632812 185.859375 125.285156 184.511719 125.285156 182.847656 C 125.285156 181.183594 126.632812 179.835938 128.296875 179.835938 L 159.484375 179.835938 C 161.148438 179.835938 162.496094 181.183594 162.496094 182.847656 C 162.496094 184.511719 161.148438 185.859375 159.484375 185.859375 Z M 247.042969 185.859375 L 179.179688 185.859375 C 177.519531 185.859375 176.171875 184.511719 176.171875 182.847656 C 176.171875 181.183594 177.519531 179.835938 179.179688 179.835938 L 247.035156 179.835938 C 248.695312 179.835938 250.042969 181.183594 250.042969 182.847656 C 250.042969 184.511719 248.703125 185.859375 247.042969 185.859375 Z M 220.699219 199.015625 L 203.34375 199.015625 C 201.679688 199.015625 200.332031 197.667969 200.332031 196.003906 C 200.332031 194.34375 201.679688 192.992188 203.34375 192.992188 L 220.699219 192.992188 C 222.359375 192.992188 223.707031 194.34375 223.707031 196.003906 C 223.707031 197.667969 222.367188 199.015625 220.699219 199.015625 Z M 192.386719 199.015625 L 154.632812 199.015625 C 152.972656 199.015625 151.621094 197.667969 151.621094 196.003906 C 151.621094 194.34375 152.972656 192.992188 154.632812 192.992188 L 192.386719 192.992188 C 194.050781 192.992188 195.398438 194.34375 195.398438 196.003906 C 195.398438 197.667969 194.050781 199.015625 192.386719 199.015625 Z M 175.777344 212.175781 L 162.621094 212.175781 C 160.960938 212.175781 159.609375 210.828125 159.609375 209.164062 C 159.609375 207.5 160.960938 206.152344 162.621094 206.152344 L 175.777344 206.152344 C 177.4375 206.152344 178.785156 207.5 178.785156 209.164062 C 178.785156 210.828125 177.445312 212.175781 175.777344 212.175781 Z M 212.710938 212.175781 L 184.089844 212.175781 C 182.429688 212.175781 181.082031 210.828125 181.082031 209.164062 C 181.082031 207.5 182.429688 206.152344 184.089844 206.152344 L 212.710938 206.152344 C 214.371094 206.152344 215.71875 207.5 215.71875 209.164062 C 215.71875 210.828125 214.371094 212.175781 212.710938 212.175781 Z M 212.710938 212.175781 " clip-rule="nonzero"/></clipPath><linearGradient x1="38.023509" gradientTransform="matrix(0.627052, 0, 0, 0.627463, 33.247708, 32.833889)" y1="69.516512" x2="423.4935" gradientUnits="userSpaceOnUse" y2="454.98651" id="dc5b42b1b6"><stop stop-opacity="1" stop-color="rgb(0%, 62.399292%, 100%)" offset="0"/><stop stop-opacity="1" stop-color="rgb(0%, 62.399292%, 100%)" offset="0.0625"/><stop stop-opacity="1" stop-color="rgb(0%, 62.399292%, 100%)" offset="0.078125"/><stop stop-opacity="1" stop-color="rgb(0.0488281%, 62.374878%, 99.960327%)" offset="0.0859375"/><stop stop-opacity="1" stop-color="rgb(0.495911%, 62.162781%, 99.61853%)" offset="0.0898438"/><stop stop-opacity="1" stop-color="rgb(0.892639%, 61.973572%, 99.316406%)" offset="0.09375"/><stop stop-opacity="1" stop-color="rgb(1.289368%, 61.784363%, 99.012756%)" offset="0.0976562"/><stop stop-opacity="1" stop-color="rgb(1.686096%, 61.59668%, 98.710632%)" offset="0.101562"/><stop stop-opacity="1" stop-color="rgb(2.082825%, 61.407471%, 98.406982%)" offset="0.105469"/><stop stop-opacity="1" stop-color="rgb(2.481079%, 61.218262%, 98.104858%)" offset="0.109375"/><stop stop-opacity="1" stop-color="rgb(2.877808%, 61.029053%, 97.801208%)" offset="0.113281"/><stop stop-opacity="1" stop-color="rgb(3.274536%, 60.84137%, 97.499084%)" offset="0.117188"/><stop stop-opacity="1" stop-color="rgb(3.671265%, 60.652161%, 97.195435%)" offset="0.121094"/><stop stop-opacity="1" stop-color="rgb(4.067993%, 60.464478%, 96.893311%)" offset="0.125"/><stop stop-opacity="1" stop-color="rgb(4.464722%, 60.275269%, 96.589661%)" offset="0.128906"/><stop stop-opacity="1" stop-color="rgb(4.86145%, 60.08606%, 96.287537%)" offset="0.132812"/><stop stop-opacity="1" stop-color="rgb(5.258179%, 59.896851%, 95.983887%)" offset="0.136719"/><stop stop-opacity="1" stop-color="rgb(5.654907%, 59.709167%, 95.681763%)" offset="0.140625"/><stop stop-opacity="1" stop-color="rgb(6.051636%, 59.519958%, 95.378113%)" offset="0.144531"/><stop stop-opacity="1" stop-color="rgb(6.448364%, 59.33075%, 95.075989%)" offset="0.148437"/><stop stop-opacity="1" stop-color="rgb(6.845093%, 59.141541%, 94.772339%)" offset="0.152344"/><stop stop-opacity="1" stop-color="rgb(7.241821%, 58.953857%, 94.470215%)" offset="0.15625"/><stop stop-opacity="1" stop-color="rgb(7.63855%, 58.764648%, 94.166565%)" offset="0.160156"/><stop stop-opacity="1" stop-color="rgb(8.036804%, 58.576965%, 93.864441%)" offset="0.164062"/><stop stop-opacity="1" stop-color="rgb(8.433533%, 58.387756%, 93.560791%)" offset="0.167969"/><stop stop-opacity="1" stop-color="rgb(8.830261%, 58.198547%, 93.258667%)" offset="0.171875"/><stop stop-opacity="1" stop-color="rgb(9.22699%, 58.009338%, 92.955017%)" offset="0.175781"/><stop stop-opacity="1" stop-color="rgb(9.623718%, 57.821655%, 92.652893%)" offset="0.179688"/><stop stop-opacity="1" stop-color="rgb(10.020447%, 57.632446%, 92.349243%)" offset="0.183594"/><stop stop-opacity="1" stop-color="rgb(10.417175%, 57.443237%, 92.047119%)" offset="0.1875"/><stop stop-opacity="1" stop-color="rgb(10.813904%, 57.254028%, 91.743469%)" offset="0.191406"/><stop stop-opacity="1" stop-color="rgb(11.210632%, 57.066345%, 91.441345%)" offset="0.195312"/><stop stop-opacity="1" stop-color="rgb(11.607361%, 56.877136%, 91.137695%)" offset="0.199219"/><stop stop-opacity="1" stop-color="rgb(12.004089%, 56.687927%, 90.835571%)" offset="0.203125"/><stop stop-opacity="1" stop-color="rgb(12.400818%, 56.498718%, 90.533447%)" offset="0.207031"/><stop stop-opacity="1" stop-color="rgb(12.797546%, 56.311035%, 90.231323%)" offset="0.210937"/><stop stop-opacity="1" stop-color="rgb(13.194275%, 56.121826%, 89.927673%)" offset="0.214844"/><stop stop-opacity="1" stop-color="rgb(13.592529%, 55.934143%, 89.625549%)" offset="0.21875"/><stop stop-opacity="1" stop-color="rgb(13.989258%, 55.744934%, 89.321899%)" offset="0.222656"/><stop stop-opacity="1" stop-color="rgb(14.385986%, 55.555725%, 89.019775%)" offset="0.226562"/><stop stop-opacity="1" stop-color="rgb(14.782715%, 55.366516%, 88.716125%)" offset="0.230469"/><stop stop-opacity="1" stop-color="rgb(15.179443%, 55.178833%, 88.414001%)" offset="0.234375"/><stop stop-opacity="1" stop-color="rgb(15.576172%, 54.989624%, 88.110352%)" offset="0.238281"/><stop stop-opacity="1" stop-color="rgb(15.9729%, 54.800415%, 87.808228%)" offset="0.242187"/><stop stop-opacity="1" stop-color="rgb(16.369629%, 54.611206%, 87.504578%)" offset="0.246094"/><stop stop-opacity="1" stop-color="rgb(16.766357%, 54.423523%, 87.202454%)" offset="0.25"/><stop stop-opacity="1" stop-color="rgb(17.163086%, 54.234314%, 86.898804%)" offset="0.253906"/><stop stop-opacity="1" stop-color="rgb(17.559814%, 54.046631%, 86.59668%)" offset="0.257812"/><stop stop-opacity="1" stop-color="rgb(17.956543%, 53.857422%, 86.29303%)" offset="0.261719"/><stop stop-opacity="1" stop-color="rgb(18.353271%, 53.668213%, 85.990906%)" offset="0.265625"/><stop stop-opacity="1" stop-color="rgb(18.75%, 53.479004%, 85.687256%)" offset="0.269531"/><stop stop-opacity="1" stop-color="rgb(19.148254%, 53.291321%, 85.385132%)" offset="0.273438"/><stop stop-opacity="1" stop-color="rgb(19.544983%, 53.102112%, 85.081482%)" offset="0.277344"/><stop stop-opacity="1" stop-color="rgb(19.941711%, 52.912903%, 84.779358%)" offset="0.28125"/><stop stop-opacity="1" stop-color="rgb(20.33844%, 52.723694%, 84.475708%)" offset="0.285156"/><stop stop-opacity="1" stop-color="rgb(20.735168%, 52.536011%, 84.173584%)" offset="0.289062"/><stop stop-opacity="1" stop-color="rgb(21.131897%, 52.346802%, 83.869934%)" offset="0.292969"/><stop stop-opacity="1" stop-color="rgb(21.528625%, 52.157593%, 83.56781%)" offset="0.296875"/><stop stop-opacity="1" stop-color="rgb(21.925354%, 51.968384%, 83.26416%)" offset="0.300781"/><stop stop-opacity="1" stop-color="rgb(22.322083%, 51.780701%, 82.962036%)" offset="0.304687"/><stop stop-opacity="1" stop-color="rgb(22.718811%, 51.591492%, 82.658386%)" offset="0.308594"/><stop stop-opacity="1" stop-color="rgb(23.11554%, 51.403809%, 82.356262%)" offset="0.3125"/><stop stop-opacity="1" stop-color="rgb(23.512268%, 51.2146%, 82.052612%)" offset="0.316406"/><stop stop-opacity="1" stop-color="rgb(23.908997%, 51.025391%, 81.750488%)" offset="0.320312"/><stop stop-opacity="1" stop-color="rgb(24.305725%, 50.836182%, 81.446838%)" offset="0.324219"/><stop stop-opacity="1" stop-color="rgb(24.703979%, 50.648499%, 81.144714%)" offset="0.328125"/><stop stop-opacity="1" stop-color="rgb(25.100708%, 50.45929%, 80.841064%)" offset="0.332031"/><stop stop-opacity="1" stop-color="rgb(25.497437%, 50.270081%, 80.53894%)" offset="0.335938"/><stop stop-opacity="1" stop-color="rgb(25.894165%, 50.080872%, 80.235291%)" offset="0.339844"/><stop stop-opacity="1" stop-color="rgb(26.290894%, 49.893188%, 79.933167%)" offset="0.34375"/><stop stop-opacity="1" stop-color="rgb(26.687622%, 49.703979%, 79.629517%)" offset="0.347656"/><stop stop-opacity="1" stop-color="rgb(27.084351%, 49.516296%, 79.327393%)" offset="0.351562"/><stop stop-opacity="1" stop-color="rgb(27.481079%, 49.327087%, 79.023743%)" offset="0.355469"/><stop stop-opacity="1" stop-color="rgb(27.877808%, 49.137878%, 78.721619%)" offset="0.359375"/><stop stop-opacity="1" stop-color="rgb(28.274536%, 48.948669%, 78.417969%)" offset="0.363281"/><stop stop-opacity="1" stop-color="rgb(28.671265%, 48.760986%, 78.115845%)" offset="0.367187"/><stop stop-opacity="1" stop-color="rgb(29.067993%, 48.571777%, 77.812195%)" offset="0.371094"/><stop stop-opacity="1" stop-color="rgb(29.464722%, 48.382568%, 77.510071%)" offset="0.375"/><stop stop-opacity="1" stop-color="rgb(29.86145%, 48.193359%, 77.206421%)" offset="0.378906"/><stop stop-opacity="1" stop-color="rgb(30.259705%, 48.005676%, 76.904297%)" offset="0.382812"/><stop stop-opacity="1" stop-color="rgb(30.656433%, 47.816467%, 76.600647%)" offset="0.386719"/><stop stop-opacity="1" stop-color="rgb(31.053162%, 47.627258%, 76.298523%)" offset="0.390625"/><stop stop-opacity="1" stop-color="rgb(31.44989%, 47.438049%, 75.994873%)" offset="0.394531"/><stop stop-opacity="1" stop-color="rgb(31.846619%, 47.250366%, 75.692749%)" offset="0.398438"/><stop stop-opacity="1" stop-color="rgb(32.243347%, 47.061157%, 75.389099%)" offset="0.402344"/><stop stop-opacity="1" stop-color="rgb(32.640076%, 46.873474%, 75.086975%)" offset="0.40625"/><stop stop-opacity="1" stop-color="rgb(33.036804%, 46.684265%, 74.783325%)" offset="0.410156"/><stop stop-opacity="1" stop-color="rgb(33.433533%, 46.495056%, 74.481201%)" offset="0.414062"/><stop stop-opacity="1" stop-color="rgb(33.830261%, 46.305847%, 74.177551%)" offset="0.417969"/><stop stop-opacity="1" stop-color="rgb(34.22699%, 46.118164%, 73.875427%)" offset="0.421875"/><stop stop-opacity="1" stop-color="rgb(34.623718%, 45.928955%, 73.571777%)" offset="0.425781"/><stop stop-opacity="1" stop-color="rgb(35.020447%, 45.739746%, 73.269653%)" offset="0.429688"/><stop stop-opacity="1" stop-color="rgb(35.417175%, 45.550537%, 72.966003%)" offset="0.433594"/><stop stop-opacity="1" stop-color="rgb(35.81543%, 45.362854%, 72.663879%)" offset="0.4375"/><stop stop-opacity="1" stop-color="rgb(36.212158%, 45.173645%, 72.360229%)" offset="0.441406"/><stop stop-opacity="1" stop-color="rgb(36.608887%, 44.984436%, 72.058105%)" offset="0.445312"/><stop stop-opacity="1" stop-color="rgb(37.005615%, 44.795227%, 71.754456%)" offset="0.449219"/><stop stop-opacity="1" stop-color="rgb(37.402344%, 44.607544%, 71.452332%)" offset="0.453125"/><stop stop-opacity="1" stop-color="rgb(37.799072%, 44.418335%, 71.148682%)" offset="0.457031"/><stop stop-opacity="1" stop-color="rgb(38.195801%, 44.230652%, 70.846558%)" offset="0.460937"/><stop stop-opacity="1" stop-color="rgb(38.592529%, 44.041443%, 70.542908%)" offset="0.464844"/><stop stop-opacity="1" stop-color="rgb(38.989258%, 43.852234%, 70.240784%)" offset="0.46875"/><stop stop-opacity="1" stop-color="rgb(39.385986%, 43.663025%, 69.937134%)" offset="0.472656"/><stop stop-opacity="1" stop-color="rgb(39.782715%, 43.475342%, 69.63501%)" offset="0.476562"/><stop stop-opacity="1" stop-color="rgb(40.179443%, 43.286133%, 69.33136%)" offset="0.480469"/><stop stop-opacity="1" stop-color="rgb(40.576172%, 43.096924%, 69.029236%)" offset="0.484375"/><stop stop-opacity="1" stop-color="rgb(40.9729%, 42.907715%, 68.725586%)" offset="0.488281"/><stop stop-opacity="1" stop-color="rgb(41.371155%, 42.720032%, 68.423462%)" offset="0.492187"/><stop stop-opacity="1" stop-color="rgb(41.767883%, 42.530823%, 68.119812%)" offset="0.496094"/><stop stop-opacity="1" stop-color="rgb(42.164612%, 42.34314%, 67.817688%)" offset="0.5"/><stop stop-opacity="1" stop-color="rgb(42.56134%, 42.153931%, 67.514038%)" offset="0.503906"/><stop stop-opacity="1" stop-color="rgb(42.958069%, 41.964722%, 67.211914%)" offset="0.507812"/><stop stop-opacity="1" stop-color="rgb(43.354797%, 41.775513%, 66.908264%)" offset="0.511719"/><stop stop-opacity="1" stop-color="rgb(43.751526%, 41.58783%, 66.60614%)" offset="0.515625"/><stop stop-opacity="1" stop-color="rgb(44.148254%, 41.398621%, 66.30249%)" offset="0.519531"/><stop stop-opacity="1" stop-color="rgb(44.544983%, 41.209412%, 66.000366%)" offset="0.523438"/><stop stop-opacity="1" stop-color="rgb(44.941711%, 41.020203%, 65.696716%)" offset="0.527344"/><stop stop-opacity="1" stop-color="rgb(45.33844%, 40.83252%, 65.394592%)" offset="0.53125"/><stop stop-opacity="1" stop-color="rgb(45.735168%, 40.643311%, 65.090942%)" offset="0.535156"/><stop stop-opacity="1" stop-color="rgb(46.131897%, 40.454102%, 64.788818%)" offset="0.539062"/><stop stop-opacity="1" stop-color="rgb(46.528625%, 40.264893%, 64.485168%)" offset="0.542969"/><stop stop-opacity="1" stop-color="rgb(46.92688%, 40.077209%, 64.183044%)" offset="0.546875"/><stop stop-opacity="1" stop-color="rgb(47.323608%, 39.888%, 63.879395%)" offset="0.550781"/><stop stop-opacity="1" stop-color="rgb(47.720337%, 39.700317%, 63.577271%)" offset="0.554688"/><stop stop-opacity="1" stop-color="rgb(48.117065%, 39.511108%, 63.273621%)" offset="0.558594"/><stop stop-opacity="1" stop-color="rgb(48.513794%, 39.321899%, 62.971497%)" offset="0.5625"/><stop stop-opacity="1" stop-color="rgb(48.910522%, 39.13269%, 62.667847%)" offset="0.566406"/><stop stop-opacity="1" stop-color="rgb(49.307251%, 38.945007%, 62.365723%)" offset="0.570312"/><stop stop-opacity="1" stop-color="rgb(49.703979%, 38.755798%, 62.062073%)" offset="0.574219"/><stop stop-opacity="1" stop-color="rgb(50.100708%, 38.566589%, 61.759949%)" offset="0.578125"/><stop stop-opacity="1" stop-color="rgb(50.497437%, 38.37738%, 61.456299%)" offset="0.582031"/><stop stop-opacity="1" stop-color="rgb(50.894165%, 38.189697%, 61.154175%)" offset="0.585938"/><stop stop-opacity="1" stop-color="rgb(51.290894%, 38.000488%, 60.850525%)" offset="0.589844"/><stop stop-opacity="1" stop-color="rgb(51.687622%, 37.812805%, 60.548401%)" offset="0.59375"/><stop stop-opacity="1" stop-color="rgb(52.084351%, 37.623596%, 60.244751%)" offset="0.597656"/><stop stop-opacity="1" stop-color="rgb(52.482605%, 37.434387%, 59.942627%)" offset="0.601562"/><stop stop-opacity="1" stop-color="rgb(52.879333%, 37.245178%, 59.638977%)" offset="0.605469"/><stop stop-opacity="1" stop-color="rgb(53.276062%, 37.057495%, 59.336853%)" offset="0.609375"/><stop stop-opacity="1" stop-color="rgb(53.672791%, 36.868286%, 59.033203%)" offset="0.613281"/><stop stop-opacity="1" stop-color="rgb(54.069519%, 36.679077%, 58.731079%)" offset="0.617187"/><stop stop-opacity="1" stop-color="rgb(54.466248%, 36.489868%, 58.427429%)" offset="0.621094"/><stop stop-opacity="1" stop-color="rgb(54.862976%, 36.302185%, 58.125305%)" offset="0.625"/><stop stop-opacity="1" stop-color="rgb(55.259705%, 36.112976%, 57.821655%)" offset="0.628906"/><stop stop-opacity="1" stop-color="rgb(55.656433%, 35.923767%, 57.519531%)" offset="0.632812"/><stop stop-opacity="1" stop-color="rgb(56.053162%, 35.734558%, 57.215881%)" offset="0.636719"/><stop stop-opacity="1" stop-color="rgb(56.44989%, 35.546875%, 56.913757%)" offset="0.640625"/><stop stop-opacity="1" stop-color="rgb(56.846619%, 35.357666%, 56.610107%)" offset="0.644531"/><stop stop-opacity="1" stop-color="rgb(57.243347%, 35.169983%, 56.307983%)" offset="0.648438"/><stop stop-opacity="1" stop-color="rgb(57.640076%, 34.980774%, 56.004333%)" offset="0.652344"/><stop stop-opacity="1" stop-color="rgb(58.03833%, 34.791565%, 55.702209%)" offset="0.65625"/><stop stop-opacity="1" stop-color="rgb(58.435059%, 34.602356%, 55.39856%)" offset="0.660156"/><stop stop-opacity="1" stop-color="rgb(58.831787%, 34.414673%, 55.096436%)" offset="0.664062"/><stop stop-opacity="1" stop-color="rgb(59.228516%, 34.225464%, 54.792786%)" offset="0.667969"/><stop stop-opacity="1" stop-color="rgb(59.625244%, 34.036255%, 54.490662%)" offset="0.671875"/><stop stop-opacity="1" stop-color="rgb(60.021973%, 33.847046%, 54.187012%)" offset="0.675781"/><stop stop-opacity="1" stop-color="rgb(60.418701%, 33.659363%, 53.884888%)" offset="0.679688"/><stop stop-opacity="1" stop-color="rgb(60.81543%, 33.470154%, 53.581238%)" offset="0.683594"/><stop stop-opacity="1" stop-color="rgb(61.212158%, 33.280945%, 53.279114%)" offset="0.6875"/><stop stop-opacity="1" stop-color="rgb(61.608887%, 33.091736%, 52.975464%)" offset="0.691406"/><stop stop-opacity="1" stop-color="rgb(62.005615%, 32.904053%, 52.67334%)" offset="0.695312"/><stop stop-opacity="1" stop-color="rgb(62.402344%, 32.714844%, 52.36969%)" offset="0.699219"/><stop stop-opacity="1" stop-color="rgb(62.799072%, 32.527161%, 52.067566%)" offset="0.703125"/><stop stop-opacity="1" stop-color="rgb(63.195801%, 32.337952%, 51.763916%)" offset="0.707031"/><stop stop-opacity="1" stop-color="rgb(63.594055%, 32.148743%, 51.461792%)" offset="0.710937"/><stop stop-opacity="1" stop-color="rgb(63.990784%, 31.959534%, 51.158142%)" offset="0.714844"/><stop stop-opacity="1" stop-color="rgb(64.387512%, 31.771851%, 50.856018%)" offset="0.71875"/><stop stop-opacity="1" stop-color="rgb(64.784241%, 31.582642%, 50.552368%)" offset="0.722656"/><stop stop-opacity="1" stop-color="rgb(65.180969%, 31.393433%, 50.250244%)" offset="0.726562"/><stop stop-opacity="1" stop-color="rgb(65.577698%, 31.204224%, 49.946594%)" offset="0.730469"/><stop stop-opacity="1" stop-color="rgb(65.974426%, 31.016541%, 49.64447%)" offset="0.734375"/><stop stop-opacity="1" stop-color="rgb(66.371155%, 30.827332%, 49.34082%)" offset="0.738281"/><stop stop-opacity="1" stop-color="rgb(66.767883%, 30.639648%, 49.038696%)" offset="0.742188"/><stop stop-opacity="1" stop-color="rgb(67.164612%, 30.450439%, 48.735046%)" offset="0.746094"/><stop stop-opacity="1" stop-color="rgb(67.56134%, 30.26123%, 48.432922%)" offset="0.75"/><stop stop-opacity="1" stop-color="rgb(67.958069%, 30.072021%, 48.129272%)" offset="0.753906"/><stop stop-opacity="1" stop-color="rgb(68.354797%, 29.884338%, 47.827148%)" offset="0.757812"/><stop stop-opacity="1" stop-color="rgb(68.751526%, 29.695129%, 47.523499%)" offset="0.761719"/><stop stop-opacity="1" stop-color="rgb(69.14978%, 29.50592%, 47.221375%)" offset="0.765625"/><stop stop-opacity="1" stop-color="rgb(69.546509%, 29.316711%, 46.917725%)" offset="0.769531"/><stop stop-opacity="1" stop-color="rgb(69.943237%, 29.129028%, 46.615601%)" offset="0.773437"/><stop stop-opacity="1" stop-color="rgb(70.339966%, 28.939819%, 46.311951%)" offset="0.777344"/><stop stop-opacity="1" stop-color="rgb(70.736694%, 28.75061%, 46.009827%)" offset="0.78125"/><stop stop-opacity="1" stop-color="rgb(71.133423%, 28.561401%, 45.706177%)" offset="0.785156"/><stop stop-opacity="1" stop-color="rgb(71.530151%, 28.373718%, 45.404053%)" offset="0.789062"/><stop stop-opacity="1" stop-color="rgb(71.92688%, 28.184509%, 45.100403%)" offset="0.792969"/><stop stop-opacity="1" stop-color="rgb(72.323608%, 27.996826%, 44.798279%)" offset="0.796875"/><stop stop-opacity="1" stop-color="rgb(72.720337%, 27.807617%, 44.494629%)" offset="0.800781"/><stop stop-opacity="1" stop-color="rgb(73.117065%, 27.618408%, 44.192505%)" offset="0.804687"/><stop stop-opacity="1" stop-color="rgb(73.513794%, 27.429199%, 43.888855%)" offset="0.808594"/><stop stop-opacity="1" stop-color="rgb(73.910522%, 27.241516%, 43.586731%)" offset="0.8125"/><stop stop-opacity="1" stop-color="rgb(74.307251%, 27.052307%, 43.283081%)" offset="0.816406"/><stop stop-opacity="1" stop-color="rgb(74.705505%, 26.863098%, 42.980957%)" offset="0.820312"/><stop stop-opacity="1" stop-color="rgb(75.102234%, 26.673889%, 42.677307%)" offset="0.824219"/><stop stop-opacity="1" stop-color="rgb(75.498962%, 26.486206%, 42.375183%)" offset="0.828125"/><stop stop-opacity="1" stop-color="rgb(75.895691%, 26.296997%, 42.071533%)" offset="0.832031"/><stop stop-opacity="1" stop-color="rgb(76.292419%, 26.109314%, 41.769409%)" offset="0.835938"/><stop stop-opacity="1" stop-color="rgb(76.689148%, 25.920105%, 41.465759%)" offset="0.839844"/><stop stop-opacity="1" stop-color="rgb(77.085876%, 25.730896%, 41.163635%)" offset="0.84375"/><stop stop-opacity="1" stop-color="rgb(77.482605%, 25.541687%, 40.859985%)" offset="0.847656"/><stop stop-opacity="1" stop-color="rgb(77.879333%, 25.354004%, 40.557861%)" offset="0.851562"/><stop stop-opacity="1" stop-color="rgb(78.276062%, 25.164795%, 40.254211%)" offset="0.855469"/><stop stop-opacity="1" stop-color="rgb(78.672791%, 24.975586%, 39.952087%)" offset="0.859375"/><stop stop-opacity="1" stop-color="rgb(79.069519%, 24.786377%, 39.648438%)" offset="0.863281"/><stop stop-opacity="1" stop-color="rgb(79.466248%, 24.598694%, 39.346313%)" offset="0.867187"/><stop stop-opacity="1" stop-color="rgb(79.862976%, 24.409485%, 39.042664%)" offset="0.871094"/><stop stop-opacity="1" stop-color="rgb(80.26123%, 24.220276%, 38.74054%)" offset="0.875"/><stop stop-opacity="1" stop-color="rgb(80.657959%, 24.031067%, 38.43689%)" offset="0.878906"/><stop stop-opacity="1" stop-color="rgb(81.054688%, 23.843384%, 38.134766%)" offset="0.882812"/><stop stop-opacity="1" stop-color="rgb(81.451416%, 23.654175%, 37.831116%)" offset="0.886719"/><stop stop-opacity="1" stop-color="rgb(81.848145%, 23.466492%, 37.528992%)" offset="0.890625"/><stop stop-opacity="1" stop-color="rgb(82.244873%, 23.277283%, 37.225342%)" offset="0.894531"/><stop stop-opacity="1" stop-color="rgb(82.641602%, 23.088074%, 36.923218%)" offset="0.898437"/><stop stop-opacity="1" stop-color="rgb(83.03833%, 22.898865%, 36.619568%)" offset="0.902344"/><stop stop-opacity="1" stop-color="rgb(83.435059%, 22.711182%, 36.317444%)" offset="0.90625"/><stop stop-opacity="1" stop-color="rgb(83.831787%, 22.521973%, 36.013794%)" offset="0.910156"/><stop stop-opacity="1" stop-color="rgb(84.228516%, 22.332764%, 35.71167%)" offset="0.914062"/><stop stop-opacity="1" stop-color="rgb(84.625244%, 22.143555%, 35.40802%)" offset="0.917969"/><stop stop-opacity="1" stop-color="rgb(85.021973%, 21.955872%, 35.105896%)" offset="0.921875"/><stop stop-opacity="1" stop-color="rgb(85.418701%, 21.766663%, 34.802246%)" offset="0.925781"/><stop stop-opacity="1" stop-color="rgb(85.816956%, 21.577454%, 34.500122%)" offset="0.929688"/><stop stop-opacity="1" stop-color="rgb(86.213684%, 21.388245%, 34.196472%)" offset="0.933594"/><stop stop-opacity="1" stop-color="rgb(86.610413%, 21.200562%, 33.894348%)" offset="0.9375"/><stop stop-opacity="1" stop-color="rgb(87.007141%, 21.011353%, 33.590698%)" offset="0.941406"/><stop stop-opacity="1" stop-color="rgb(87.40387%, 20.823669%, 33.288574%)" offset="0.945312"/><stop stop-opacity="1" stop-color="rgb(87.800598%, 20.63446%, 32.984924%)" offset="0.949219"/><stop stop-opacity="1" stop-color="rgb(88.197327%, 20.445251%, 32.6828%)" offset="0.953125"/><stop stop-opacity="1" stop-color="rgb(88.594055%, 20.256042%, 32.37915%)" offset="0.957031"/><stop stop-opacity="1" stop-color="rgb(88.990784%, 20.068359%, 32.077026%)" offset="0.960938"/><stop stop-opacity="1" stop-color="rgb(89.387512%, 19.87915%, 31.773376%)" offset="0.964844"/><stop stop-opacity="1" stop-color="rgb(89.784241%, 19.689941%, 31.471252%)" offset="0.96875"/><stop stop-opacity="1" stop-color="rgb(90.180969%, 19.500732%, 31.167603%)" offset="0.972656"/><stop stop-opacity="1" stop-color="rgb(90.577698%, 19.313049%, 30.865479%)" offset="0.976563"/><stop stop-opacity="1" stop-color="rgb(90.974426%, 19.12384%, 30.561829%)" offset="0.980469"/><stop stop-opacity="1" stop-color="rgb(91.371155%, 18.936157%, 30.259705%)" offset="0.984375"/><stop stop-opacity="1" stop-color="rgb(91.767883%, 18.746948%, 29.956055%)" offset="0.988281"/><stop stop-opacity="1" stop-color="rgb(92.166138%, 18.557739%, 29.653931%)" offset="0.992188"/><stop stop-opacity="1" stop-color="rgb(92.332458%, 18.478394%, 29.525757%)" offset="1"/></linearGradient></defs><g clip-path="url(#824b2a8987)"><g clip-path="url(#0933ee2eec)"><path fill="url(#dc5b42b1b6)" d="M 49.386719 84.160156 L 49.386719 291.160156 L 325.941406 291.160156 L 325.941406 84.160156 Z M 49.386719 84.160156 " fill-rule="nonzero"/></g></g></svg>
